<?xml version="1.0" encoding="UTF-8" standalone="no"?><!DOCTYPE svg PUBLIC "-//W3C//DTD SVG 1.1//EN" "http://www.w3.org/Graphics/SVG/1.1/DTD/svg11.dtd"><!-- Generated by graphviz version 2.40.1 (20161225.0304)
 --><!-- Title: G Pages: 1 --><svg xmlns="http://www.w3.org/2000/svg" xmlns:xlink="http://www.w3.org/1999/xlink" width="1974pt" height="2314pt" viewBox="0.00 0.00 1974.22 2314.00">
<g id="graph0" class="graph" transform="scale(1 1) rotate(0) translate(4 2310)">
<title>G</title>
<polygon fill="#ffffff" stroke="transparent" points="-4,4 -4,-2310 1970.22,-2310 1970.22,4 -4,4"/>
<!-- Additional Document -->
<g id="node1" class="node">
<title>Additional Document</title>
<polygon fill="#c277f2" stroke="#c277f2" points="494.9404,-2164 357.5386,-2164 357.5386,-2128 494.9404,-2128 494.9404,-2164"/>
<text text-anchor="middle" x="426.2395" y="-2141.8" font-family="Times,serif" font-size="14.00" fill="#000000">Additional Document</text>
</g>
<!-- Quote -->
<g id="node36" class="node">
<title>Quote</title>
<polygon fill="#c277f2" stroke="#c277f2" points="1286.8958,-1827 1232.8958,-1827 1232.8958,-1791 1286.8958,-1791 1286.8958,-1827"/>
<text text-anchor="middle" x="1259.8958" y="-1804.8" font-family="Times,serif" font-size="14.00" fill="#000000">Quote</text>
</g>
<!-- Additional Document&#45;&gt;Quote -->
<g id="edge4" class="edge">
<title>Additional Document-&gt;Quote</title>
<path fill="none" stroke="#7f7f7f" d="M453.2227,-2127.9479C528.8043,-2078.243 750.4129,-1938.3487 954.1664,-1867 1003.3931,-1849.7622 1152.2885,-1825.5318 1222.4978,-1814.6637"/>
<polygon fill="#7f7f7f" stroke="#7f7f7f" points="1223.3132,-1818.0794 1232.6641,-1813.0983 1222.2479,-1811.161 1223.3132,-1818.0794"/>
</g>
<!-- Quote Template -->
<g id="node41" class="node">
<title>Quote Template</title>
<polygon fill="#c277f2" stroke="#c277f2" points="1500.4784,-2169 1394.3168,-2169 1394.3168,-2133 1500.4784,-2133 1500.4784,-2169"/>
<text text-anchor="middle" x="1447.3976" y="-2146.8" font-family="Times,serif" font-size="14.00" fill="#000000">Quote Template</text>
</g>
<!-- Additional Document&#45;&gt;Quote Template -->
<g id="edge2" class="edge">
<title>Additional Document-&gt;Quote Template</title>
<path fill="none" stroke="#7f7f7f" d="M449.4443,-2164.0201C483.6178,-2188.7021 550.4047,-2230 614.7066,-2230 614.7066,-2230 614.7066,-2230 1154.9596,-2230 1235.6678,-2230 1258.4198,-2234.7438 1335.5564,-2211 1362.6441,-2202.662 1390.7459,-2187.5559 1412.0044,-2174.5877"/>
<polygon fill="#7f7f7f" stroke="#7f7f7f" points="1414.0366,-2177.4454 1420.6734,-2169.1868 1410.3351,-2171.5041 1414.0366,-2177.4454"/>
</g>
<!-- Template Section -->
<g id="node49" class="node">
<title>Template Section</title>
<polygon fill="#c277f2" stroke="#c277f2" points="1827.4818,-2199 1712.7582,-2199 1712.7582,-2163 1827.4818,-2163 1827.4818,-2199"/>
<text text-anchor="middle" x="1770.12" y="-2176.8" font-family="Times,serif" font-size="14.00" fill="#000000">Template Section</text>
</g>
<!-- Additional Document&#45;&gt;Template Section -->
<g id="edge5" class="edge">
<title>Additional Document-&gt;Template Section</title>
<path fill="none" stroke="#7f7f7f" d="M436.1048,-2164.043C460.454,-2205.8871 527.7918,-2306 614.7066,-2306 614.7066,-2306 614.7066,-2306 1596.0379,-2306 1663.0343,-2306 1721.9085,-2244.1576 1750.9407,-2207.4699"/>
<polygon fill="#7f7f7f" stroke="#7f7f7f" points="1754.0014,-2209.2323 1757.3365,-2199.1761 1748.4582,-2204.9576 1754.0014,-2209.2323"/>
</g>
<!-- Opportunity -->
<g id="node56" class="node">
<title>Opportunity</title>
<polygon fill="#009edb" stroke="#009edb" points="1812.5601,-1968 1727.6799,-1968 1727.6799,-1932 1812.5601,-1932 1812.5601,-1968"/>
<text text-anchor="middle" x="1770.12" y="-1945.8" font-family="Times,serif" font-size="14.00" fill="#000000">Opportunity</text>
</g>
<!-- Additional Document&#45;&gt;Opportunity -->
<g id="edge1" class="edge">
<title>Additional Document-&gt;Opportunity</title>
<path fill="none" stroke="#7f7f7f" d="M495.2222,-2141.6619C647.425,-2131.612 1023.3043,-2104.1657 1335.5564,-2060 1478.3257,-2039.8064 1515.0153,-2036.96 1654.3882,-2000 1679.0829,-1993.4513 1705.3188,-1982.4794 1726.5563,-1972.4794"/>
<polygon fill="#7f7f7f" stroke="#7f7f7f" points="1728.1346,-1975.6042 1735.6351,-1968.1213 1725.1053,-1969.2936 1728.1346,-1975.6042"/>
</g>
<!-- Product -->
<g id="node57" class="node">
<title>Product</title>
<polygon fill="#009edb" stroke="#009edb" points="644.2567,-993 585.1565,-993 585.1565,-957 644.2567,-957 644.2567,-993"/>
<text text-anchor="middle" x="614.7066" y="-970.8" font-family="Times,serif" font-size="14.00" fill="#000000">Product</text>
</g>
<!-- Additional Document&#45;&gt;Product -->
<g id="edge3" class="edge">
<title>Additional Document-&gt;Product</title>
<path fill="none" stroke="#7f7f7f" d="M431.0707,-2127.9918C442.7801,-2084.068 473.3138,-1967.8581 495.0898,-1870 515.4533,-1778.4896 524.5575,-1756.0912 535.641,-1663 557.3626,-1480.5587 529.6351,-1432.1548 553.641,-1250 565.6962,-1158.5263 593.1472,-1052.5262 606.7553,-1003.0878"/>
<polygon fill="#7f7f7f" stroke="#7f7f7f" points="610.2125,-1003.7187 609.5157,-993.1468 603.4677,-1001.8458 610.2125,-1003.7187"/>
</g>
<!-- Block Price -->
<g id="node2" class="node">
<title>Block Price</title>
<polygon fill="#c277f2" stroke="#c277f2" points="1300.6011,-1086 1219.1905,-1086 1219.1905,-1050 1300.6011,-1050 1300.6011,-1086"/>
<text text-anchor="middle" x="1259.8958" y="-1063.8" font-family="Times,serif" font-size="14.00" fill="#000000">Block Price</text>
</g>
<!-- Block Price&#45;&gt;Product -->
<g id="edge10" class="edge">
<title>Block Price-&gt;Product</title>
<path fill="none" stroke="#7f7f7f" d="M1219.0307,-1065.2025C1125.3632,-1058.3007 888.2556,-1038.0426 693.7722,-998 680.7351,-995.3158 666.7223,-991.5416 654.1681,-987.8253"/>
<polygon fill="#7f7f7f" stroke="#7f7f7f" points="655.0446,-984.4338 644.4592,-984.8793 653.0121,-991.1322 655.0446,-984.4338"/>
</g>
<!-- Price Book -->
<g id="node59" class="node">
<title>Price Book</title>
<polygon fill="#009edb" stroke="#009edb" points="1809.2206,-1086 1731.0194,-1086 1731.0194,-1050 1809.2206,-1050 1809.2206,-1086"/>
<text text-anchor="middle" x="1770.12" y="-1063.8" font-family="Times,serif" font-size="14.00" fill="#000000">Price Book</text>
</g>
<!-- Block Price&#45;&gt;Price Book -->
<g id="edge9" class="edge">
<title>Block Price-&gt;Price Book</title>
<path fill="none" stroke="#7f7f7f" d="M1300.7871,-1068C1393.6279,-1068 1620.052,-1068 1720.6038,-1068"/>
<polygon fill="#7f7f7f" stroke="#7f7f7f" points="1720.7948,-1071.5001 1730.7948,-1068 1720.7947,-1064.5001 1720.7948,-1071.5001"/>
</g>
<!-- Configuration Attribute -->
<g id="node3" class="node">
<title>Configuration Attribute</title>
<polygon fill="#c277f2" stroke="#c277f2" points="1333.9848,-498 1185.8068,-498 1185.8068,-462 1333.9848,-462 1333.9848,-498"/>
<text text-anchor="middle" x="1259.8958" y="-475.8" font-family="Times,serif" font-size="14.00" fill="#000000">Configuration Attribute</text>
</g>
<!-- Product Feature -->
<g id="node33" class="node">
<title>Product Feature</title>
<polygon fill="#c277f2" stroke="#c277f2" points="1499.9236,-471 1394.8716,-471 1394.8716,-435 1499.9236,-435 1499.9236,-471"/>
<text text-anchor="middle" x="1447.3976" y="-448.8" font-family="Times,serif" font-size="14.00" fill="#000000">Product Feature</text>
</g>
<!-- Configuration Attribute&#45;&gt;Product Feature -->
<g id="edge11" class="edge">
<title>Configuration Attribute-&gt;Product Feature</title>
<path fill="none" stroke="#7f7f7f" d="M1334.0015,-469.3289C1350.7858,-466.912 1368.4498,-464.3684 1384.7085,-462.0271"/>
<polygon fill="#7f7f7f" stroke="#7f7f7f" points="1385.2309,-465.4881 1394.6299,-460.5985 1384.2331,-458.5596 1385.2309,-465.4881"/>
</g>
<!-- Configuration Rule -->
<g id="node4" class="node">
<title>Configuration Rule</title>
<polygon fill="#c277f2" stroke="#c277f2" points="488.7265,-230 363.7525,-230 363.7525,-194 488.7265,-194 488.7265,-230"/>
<text text-anchor="middle" x="426.2395" y="-207.8" font-family="Times,serif" font-size="14.00" fill="#000000">Configuration Rule</text>
</g>
<!-- Configuration Rule&#45;&gt;Product Feature -->
<g id="edge12" class="edge">
<title>Configuration Rule-&gt;Product Feature</title>
<path fill="none" stroke="#7f7f7f" d="M482.1975,-230.145C486.7918,-232.744 491.1685,-235.6834 495.0898,-239 506.9619,-249.0414 500.1146,-260.4313 513.0898,-269 551.1325,-294.123 569.117,-283 614.7066,-283 614.7066,-283 614.7066,-283 1259.8958,-283 1343.9311,-283 1407.0533,-377.8794 1433.6081,-425.875"/>
<polygon fill="#7f7f7f" stroke="#7f7f7f" points="1430.5985,-427.6679 1438.4269,-434.807 1436.7591,-424.3443 1430.5985,-427.6679"/>
</g>
<!-- Product Rule -->
<g id="node35" class="node">
<title>Product Rule</title>
<polygon fill="#c277f2" stroke="#c277f2" points="659.6981,-229 569.7151,-229 569.7151,-193 659.6981,-193 659.6981,-229"/>
<text text-anchor="middle" x="614.7066" y="-206.8" font-family="Times,serif" font-size="14.00" fill="#000000">Product Rule</text>
</g>
<!-- Configuration Rule&#45;&gt;Product Rule -->
<g id="edge13" class="edge">
<title>Configuration Rule-&gt;Product Rule</title>
<path fill="none" stroke="#000000" stroke-width="2" d="M488.7345,-211.6684C511.5823,-211.5472 537.2485,-211.411 559.4228,-211.2933"/>
<polygon fill="#000000" stroke="#000000" stroke-width="2" points="559.689,-214.7921 569.6702,-211.239 559.6518,-207.7922 559.689,-214.7921"/>
<text text-anchor="middle" x="524.3654" y="-216.2" font-family="Times,serif" font-size="14.00" fill="#000000">MD</text>
</g>
<!-- Contracted Price -->
<g id="node5" class="node">
<title>Contracted Price</title>
<polygon fill="#c277f2" stroke="#c277f2" points="1314.5815,-1477 1205.2101,-1477 1205.2101,-1441 1314.5815,-1441 1314.5815,-1477"/>
<text text-anchor="middle" x="1259.8958" y="-1454.8" font-family="Times,serif" font-size="14.00" fill="#000000">Contracted Price</text>
</g>
<!-- Discount Schedule -->
<g id="node11" class="node">
<title>Discount Schedule</title>
<polygon fill="#c277f2" stroke="#c277f2" points="917.3489,-993 795.6199,-993 795.6199,-957 917.3489,-957 917.3489,-993"/>
<text text-anchor="middle" x="856.4844" y="-970.8" font-family="Times,serif" font-size="14.00" fill="#000000">Discount Schedule</text>
</g>
<!-- Contracted Price&#45;&gt;Discount Schedule -->
<g id="edge20" class="edge">
<title>Contracted Price-&gt;Discount Schedule</title>
<path fill="none" stroke="#7f7f7f" d="M1205.1473,-1448.2179C1122.0603,-1431.3857 971.8617,-1398.9392 954.1664,-1381 900.5156,-1326.6096 868.9957,-1086.5891 859.5312,-1003.4585"/>
<polygon fill="#7f7f7f" stroke="#7f7f7f" points="863.0029,-1003.0095 858.4138,-993.4601 856.0463,-1003.787 863.0029,-1003.0095"/>
</g>
<!-- Contracted Price&#45;&gt;Product -->
<g id="edge21" class="edge">
<title>Contracted Price-&gt;Product</title>
<path fill="none" stroke="#7f7f7f" d="M1204.9761,-1471.3006C1141.5761,-1482.709 1035.5854,-1493.0434 954.1664,-1457 754.0846,-1368.4258 651.443,-1091.6458 623.0323,-1002.7718"/>
<polygon fill="#7f7f7f" stroke="#7f7f7f" points="626.3381,-1001.6162 620.0053,-993.1223 619.659,-1003.7115 626.3381,-1001.6162"/>
</g>
<!-- Contract -->
<g id="node60" class="node">
<title>Contract</title>
<polygon fill="#009edb" stroke="#009edb" points="1628.2458,-1703 1563.83,-1703 1563.83,-1667 1628.2458,-1667 1628.2458,-1703"/>
<text text-anchor="middle" x="1596.0379" y="-1680.8" font-family="Times,serif" font-size="14.00" fill="#000000">Contract</text>
</g>
<!-- Contracted Price&#45;&gt;Contract -->
<g id="edge19" class="edge">
<title>Contracted Price-&gt;Contract</title>
<path fill="none" stroke="#7f7f7f" d="M1286.8355,-1477.1125C1347.0708,-1517.6108 1492.6585,-1615.4944 1560.3396,-1660.9988"/>
<polygon fill="#7f7f7f" stroke="#7f7f7f" points="1558.7183,-1664.1262 1568.9699,-1666.8012 1562.624,-1658.3171 1558.7183,-1664.1262"/>
</g>
<!-- Cost -->
<g id="node6" class="node">
<title>Cost</title>
<polygon fill="#c277f2" stroke="#c277f2" points="1286.8958,-772 1232.8958,-772 1232.8958,-736 1286.8958,-736 1286.8958,-772"/>
<text text-anchor="middle" x="1259.8958" y="-749.8" font-family="Times,serif" font-size="14.00" fill="#000000">Cost</text>
</g>
<!-- Cost&#45;&gt;Product -->
<g id="edge22" class="edge">
<title>Cost-&gt;Product</title>
<path fill="none" stroke="#7f7f7f" d="M1232.8904,-750.0214C1132.1709,-735.7855 779.8145,-691.556 693.7722,-756 662.3786,-779.5132 633.1462,-893.226 620.8387,-946.8738"/>
<polygon fill="#7f7f7f" stroke="#7f7f7f" points="617.3955,-946.2327 618.6073,-956.758 624.2236,-947.7742 617.3955,-946.2327"/>
</g>
<!-- Custom Action -->
<g id="node7" class="node">
<title>Custom Action</title>
<polygon fill="#c277f2" stroke="#c277f2" points="320.4717,-305 219.1419,-305 219.1419,-269 320.4717,-269 320.4717,-305"/>
<text text-anchor="middle" x="269.8068" y="-282.8" font-family="Times,serif" font-size="14.00" fill="#000000">Custom Action</text>
</g>
<!-- Custom Action Condition -->
<g id="node8" class="node">
<title>Custom Action Condition</title>
<polygon fill="#c277f2" stroke="#c277f2" points="160.5101,-332 .1631,-332 .1631,-296 160.5101,-296 160.5101,-332"/>
<text text-anchor="middle" x="80.3366" y="-309.8" font-family="Times,serif" font-size="14.00" fill="#000000">Custom Action Condition</text>
</g>
<!-- Custom Action Condition&#45;&gt;Custom Action -->
<g id="edge23" class="edge">
<title>Custom Action Condition-&gt;Custom Action</title>
<path fill="none" stroke="#000000" stroke-width="2" d="M160.689,-302.5496C176.9054,-300.2387 193.6973,-297.8458 209.1043,-295.6503"/>
<polygon fill="#000000" stroke="#000000" stroke-width="2" points="209.6027,-299.1147 219.0089,-294.2388 208.6151,-292.1847 209.6027,-299.1147"/>
<text text-anchor="middle" x="189.9488" y="-304.2" font-family="Times,serif" font-size="14.00" fill="#000000">MD</text>
</g>
<!-- Custom Script -->
<g id="node9" class="node">
<title>Custom Script</title>
<polygon fill="#c277f2" stroke="#c277f2" points="128.3393,-386 32.3339,-386 32.3339,-350 128.3393,-350 128.3393,-386"/>
<text text-anchor="middle" x="80.3366" y="-363.8" font-family="Times,serif" font-size="14.00" fill="#000000">Custom Script</text>
</g>
<!-- Discount Category -->
<g id="node10" class="node">
<title>Discount Category</title>
<polygon fill="#c277f2" stroke="#c277f2" points="917.3489,-666 795.6199,-666 795.6199,-630 917.3489,-630 917.3489,-666"/>
<text text-anchor="middle" x="856.4844" y="-643.8" font-family="Times,serif" font-size="14.00" fill="#000000">Discount Category</text>
</g>
<!-- Discount Schedule&#45;&gt;Quote -->
<g id="edge28" class="edge">
<title>Discount Schedule-&gt;Quote</title>
<path fill="none" stroke="#7f7f7f" d="M857.6906,-993.1101C865.0289,-1100.9744 905.002,-1655.9751 954.1664,-1712 1006.2237,-1771.3214 1053.1538,-1726.8815 1125.684,-1758 1134.3,-1761.6966 1135.2015,-1765.0064 1143.684,-1769 1169.2447,-1781.0342 1199.4525,-1791.3203 1222.6625,-1798.4473"/>
<polygon fill="#7f7f7f" stroke="#7f7f7f" points="1221.8846,-1801.8682 1232.469,-1801.3992 1223.9023,-1795.1653 1221.8846,-1801.8682"/>
</g>
<!-- Quote Line -->
<g id="node38" class="node">
<title>Quote Line</title>
<polygon fill="#c277f2" stroke="#c277f2" points="1079.7957,-1191 1000.0547,-1191 1000.0547,-1155 1079.7957,-1155 1079.7957,-1191"/>
<text text-anchor="middle" x="1039.9252" y="-1168.8" font-family="Times,serif" font-size="14.00" fill="#000000">Quote Line</text>
</g>
<!-- Discount Schedule&#45;&gt;Quote Line -->
<g id="edge29" class="edge">
<title>Discount Schedule-&gt;Quote Line</title>
<path fill="none" stroke="#7f7f7f" d="M877.5274,-993.2192C913.1851,-1028.6686 985.0039,-1106.218 1019.9352,-1147.021"/>
<polygon fill="#7f7f7f" stroke="#7f7f7f" points="1017.4746,-1149.5316 1026.6056,-1154.9052 1022.8186,-1145.0103 1017.4746,-1149.5316"/>
</g>
<!-- Discount Schedule&#45;&gt;Product -->
<g id="edge27" class="edge">
<title>Discount Schedule-&gt;Product</title>
<path fill="none" stroke="#7f7f7f" d="M795.4932,-980.9518C751.3376,-982.2338 692.9155,-981.9715 654.5989,-980.1648"/>
<polygon fill="#7f7f7f" stroke="#7f7f7f" points="654.5267,-976.656 644.3533,-979.6143 654.1511,-983.6459 654.5267,-976.656"/>
</g>
<!-- Discount Schedule&#45;&gt;Price Book -->
<g id="edge26" class="edge">
<title>Discount Schedule-&gt;Price Book</title>
<path fill="none" stroke="#7f7f7f" d="M913.1597,-956.9763C926.5029,-953.2295 940.7489,-949.627 954.1664,-947 1088.2889,-920.7406 1123.2268,-914 1259.8958,-914 1259.8958,-914 1259.8958,-914 1596.0379,-914 1671.758,-914 1730.0066,-996.7463 1755.712,-1040.9301"/>
<polygon fill="#7f7f7f" stroke="#7f7f7f" points="1752.7229,-1042.7545 1760.6979,-1049.7294 1758.8132,-1039.3036 1752.7229,-1042.7545"/>
</g>
<!-- Account -->
<g id="node61" class="node">
<title>Account</title>
<polygon fill="#009edb" stroke="#009edb" points="1802.0478,-1538 1738.1922,-1538 1738.1922,-1502 1802.0478,-1502 1802.0478,-1538"/>
<text text-anchor="middle" x="1770.12" y="-1515.8" font-family="Times,serif" font-size="14.00" fill="#000000">Account</text>
</g>
<!-- Discount Schedule&#45;&gt;Account -->
<g id="edge24" class="edge">
<title>Discount Schedule-&gt;Account</title>
<path fill="none" stroke="#7f7f7f" d="M858.7214,-993.4491C867.364,-1061.632 900.7744,-1298.0231 954.1664,-1348 1010.8404,-1401.0489 1049.6227,-1365.482 1125.684,-1381 1353.6381,-1427.5071 1625.8879,-1487.7941 1728.3725,-1510.6567"/>
<polygon fill="#7f7f7f" stroke="#7f7f7f" points="1727.7998,-1514.1149 1738.3222,-1512.8777 1729.3249,-1507.2831 1727.7998,-1514.1149"/>
</g>
<!-- Original Discount Schedule -->
<g id="node63" class="node">
<title>Original Discount Schedule</title>
<polygon fill="#009edb" stroke="#009edb" points="1125.4435,-894 954.4069,-894 954.4069,-858 1125.4435,-858 1125.4435,-894"/>
<text text-anchor="middle" x="1039.9252" y="-871.8" font-family="Times,serif" font-size="14.00" fill="#000000">Original Discount Schedule</text>
</g>
<!-- Discount Schedule&#45;&gt;Original Discount Schedule -->
<g id="edge25" class="edge">
<title>Discount Schedule-&gt;Original Discount Schedule</title>
<path fill="none" stroke="#7f7f7f" d="M873.3429,-956.9983C888.2984,-941.9829 911.4031,-921.0104 935.1664,-908 942.2224,-904.1369 949.8068,-900.6767 957.5524,-897.5918"/>
<polygon fill="#7f7f7f" stroke="#7f7f7f" points="958.9306,-900.8128 967.0555,-894.0131 956.4636,-894.2619 958.9306,-900.8128"/>
</g>
<!-- Discount Tier -->
<g id="node12" class="node">
<title>Discount Tier</title>
<polygon fill="#c277f2" stroke="#c277f2" points="1306.7619,-982 1213.0297,-982 1213.0297,-946 1306.7619,-946 1306.7619,-982"/>
<text text-anchor="middle" x="1259.8958" y="-959.8" font-family="Times,serif" font-size="14.00" fill="#000000">Discount Tier</text>
</g>
<!-- Discount Tier&#45;&gt;Discount Schedule -->
<g id="edge30" class="edge">
<title>Discount Tier-&gt;Discount Schedule</title>
<path fill="none" stroke="#000000" stroke-width="2" d="M1212.8235,-957.3823C1197.9524,-955.5845 1181.4354,-953.8895 1166.2352,-953 1084.2826,-948.204 990.2316,-956.8972 927.4703,-964.7293"/>
<polygon fill="#000000" stroke="#000000" stroke-width="2" points="926.7643,-961.2909 917.2869,-966.0269 927.6491,-968.2347 926.7643,-961.2909"/>
<text text-anchor="middle" x="1039.9252" y="-965.2" font-family="Times,serif" font-size="14.00" fill="#000000">MD</text>
</g>
<!-- Error Condition -->
<g id="node13" class="node">
<title>Error Condition</title>
<polygon fill="#c277f2" stroke="#c277f2" points="478.7823,-40 373.6967,-40 373.6967,-4 478.7823,-4 478.7823,-40"/>
<text text-anchor="middle" x="426.2395" y="-17.8" font-family="Times,serif" font-size="14.00" fill="#000000">Error Condition</text>
</g>
<!-- Error Condition&#45;&gt;Product Rule -->
<g id="edge33" class="edge">
<title>Error Condition-&gt;Product Rule</title>
<path fill="none" stroke="#000000" stroke-width="2" d="M444.3105,-40.1221C478.0828,-73.9899 550.8376,-146.9504 589.4456,-185.6676"/>
<polygon fill="#000000" stroke="#000000" stroke-width="2" points="587.1508,-188.3231 596.6903,-192.9328 592.1076,-183.3803 587.1508,-188.3231"/>
<text text-anchor="middle" x="524.3654" y="-132.2" font-family="Times,serif" font-size="14.00" fill="#000000">MD</text>
</g>
<!-- Summary Variable -->
<g id="node47" class="node">
<title>Summary Variable</title>
<polygon fill="#c277f2" stroke="#c277f2" points="675.8379,-111 553.5753,-111 553.5753,-75 675.8379,-75 675.8379,-111"/>
<text text-anchor="middle" x="614.7066" y="-88.8" font-family="Times,serif" font-size="14.00" fill="#000000">Summary Variable</text>
</g>
<!-- Error Condition&#45;&gt;Summary Variable -->
<g id="edge32" class="edge">
<title>Error Condition-&gt;Summary Variable</title>
<path fill="none" stroke="#7f7f7f" d="M478.9849,-37.4961C497.1046,-43.1825 517.4098,-49.9613 535.641,-57 546.3059,-61.1175 557.5866,-65.9527 568.1836,-70.7196"/>
<polygon fill="#7f7f7f" stroke="#7f7f7f" points="566.7367,-73.9065 577.2875,-74.8714 569.6413,-67.5375 566.7367,-73.9065"/>
</g>
<!-- Filter Variable -->
<g id="node64" class="node">
<title>Filter Variable</title>
<polygon fill="#009edb" stroke="#009edb" points="663.7284,-36 565.6848,-36 565.6848,0 663.7284,0 663.7284,-36"/>
<text text-anchor="middle" x="614.7066" y="-13.8" font-family="Times,serif" font-size="14.00" fill="#000000">Filter Variable</text>
</g>
<!-- Error Condition&#45;&gt;Filter Variable -->
<g id="edge31" class="edge">
<title>Error Condition-&gt;Filter Variable</title>
<path fill="none" stroke="#7f7f7f" d="M478.9887,-20.8805C502.7146,-20.3769 530.8241,-19.7803 555.29,-19.261"/>
<polygon fill="#7f7f7f" stroke="#7f7f7f" points="555.6055,-22.7552 565.5289,-19.0437 555.4569,-15.7568 555.6055,-22.7552"/>
</g>
<!-- Favorite -->
<g id="node14" class="node">
<title>Favorite</title>
<polygon fill="#c277f2" stroke="#c277f2" points="645.8612,-481 583.552,-481 583.552,-445 645.8612,-445 645.8612,-481"/>
<text text-anchor="middle" x="614.7066" y="-458.8" font-family="Times,serif" font-size="14.00" fill="#000000">Favorite</text>
</g>
<!-- Favorite Product -->
<g id="node15" class="node">
<title>Favorite Product</title>
<polygon fill="#c277f2" stroke="#c277f2" points="480.9419,-468 371.5371,-468 371.5371,-432 480.9419,-432 480.9419,-468"/>
<text text-anchor="middle" x="426.2395" y="-445.8" font-family="Times,serif" font-size="14.00" fill="#000000">Favorite Product</text>
</g>
<!-- Favorite Product&#45;&gt;Favorite -->
<g id="edge37" class="edge">
<title>Favorite Product-&gt;Favorite</title>
<path fill="none" stroke="#000000" stroke-width="2" d="M481.1202,-449.1306C498.5719,-449.248 517.9374,-449.7885 535.641,-451.2 547.8394,-452.1725 561.0143,-453.8749 573.0459,-455.6891"/>
<polygon fill="#000000" stroke="#000000" stroke-width="2" points="572.8494,-459.2011 583.2716,-457.2965 573.9365,-452.286 572.8494,-459.2011"/>
<text text-anchor="middle" x="524.3654" y="-456.2" font-family="Times,serif" font-size="14.00" fill="#000000">MD</text>
</g>
<!-- Favorite Product&#45;&gt;Favorite Product -->
<g id="edge36" class="edge">
<title>Favorite Product-&gt;Favorite Product</title>
<path fill="none" stroke="#7f7f7f" d="M410.6814,-468.1527C408.2878,-477.5391 413.4739,-486 426.2395,-486 434.0186,-486 438.983,-482.8581 441.1329,-478.2796"/>
<polygon fill="#7f7f7f" stroke="#7f7f7f" points="444.635,-478.3605 441.7976,-468.1527 437.6501,-477.902 444.635,-478.3605"/>
</g>
<!-- Product Option -->
<g id="node34" class="node">
<title>Product Option</title>
<polygon fill="#c277f2" stroke="#c277f2" points="1310.832,-444 1208.9596,-444 1208.9596,-408 1310.832,-408 1310.832,-444"/>
<text text-anchor="middle" x="1259.8958" y="-421.8" font-family="Times,serif" font-size="14.00" fill="#000000">Product Option</text>
</g>
<!-- Favorite Product&#45;&gt;Product Option -->
<g id="edge35" class="edge">
<title>Favorite Product-&gt;Product Option</title>
<path fill="none" stroke="#7f7f7f" d="M481.0117,-442.8242C503.4774,-440.1827 529.7663,-437.4774 553.641,-436 678.1693,-428.2938 1050.97,-426.5203 1198.6631,-426.1169"/>
<polygon fill="#7f7f7f" stroke="#7f7f7f" points="1198.9107,-429.6164 1208.9015,-426.0902 1198.8924,-422.6164 1198.9107,-429.6164"/>
</g>
<!-- Favorite Product&#45;&gt;Product -->
<g id="edge34" class="edge">
<title>Favorite Product-&gt;Product</title>
<path fill="none" stroke="#7f7f7f" d="M432.727,-468.0717C460.6738,-545.9214 570.9002,-852.9716 604.7598,-947.2918"/>
<polygon fill="#7f7f7f" stroke="#7f7f7f" points="601.4762,-948.5041 608.1492,-956.7335 608.0646,-946.139 601.4762,-948.5041"/>
</g>
<!-- Favorite Share -->
<g id="node16" class="node">
<title>Favorite Share</title>
<polygon fill="#c277f2" stroke="#c277f2" points="475.2655,-1342 377.2135,-1342 377.2135,-1306 475.2655,-1306 475.2655,-1342"/>
<text text-anchor="middle" x="426.2395" y="-1319.8" font-family="Times,serif" font-size="14.00" fill="#000000">Favorite Share</text>
</g>
<!-- Favorite Share&#45;&gt;Favorite -->
<g id="edge39" class="edge">
<title>Favorite Share-&gt;Favorite</title>
<path fill="none" stroke="#000000" stroke-width="2" d="M431.3428,-1305.6798C444.6929,-1256.8225 480.6138,-1119.1577 495.0898,-1002 498.5718,-973.8189 495.5088,-513.4981 513.0898,-491.2 527.2152,-473.2847 551.6655,-466.1287 573.0426,-463.5023"/>
<polygon fill="#000000" stroke="#000000" stroke-width="2" points="573.6005,-466.9655 583.2312,-462.5496 572.9488,-459.9959 573.6005,-466.9655"/>
<text text-anchor="middle" x="524.3654" y="-495.2" font-family="Times,serif" font-size="14.00" fill="#000000">MD</text>
</g>
<!-- User -->
<g id="node62" class="node">
<title>User</title>
<polygon fill="#009edb" stroke="#009edb" points="1797.12,-1797 1743.12,-1797 1743.12,-1761 1797.12,-1761 1797.12,-1797"/>
<text text-anchor="middle" x="1770.12" y="-1774.8" font-family="Times,serif" font-size="14.00" fill="#000000">User</text>
</g>
<!-- Favorite Share&#45;&gt;User -->
<g id="edge38" class="edge">
<title>Favorite Share-&gt;User</title>
<path fill="none" stroke="#7f7f7f" d="M442.3521,-1342.1355C489.997,-1394.2129 636.8546,-1543.8125 795.8024,-1596 847.0503,-1612.8263 863.5698,-1602.0729 917.1664,-1596 1019.8028,-1584.3705 1041.0476,-1555.6295 1143.684,-1544 1211.1581,-1536.3547 1141.9352,-1510.7376 1376.1076,-1560 1504.4245,-1586.9938 1544.2151,-1586.8959 1654.3882,-1658 1694.058,-1683.6023 1729.9766,-1725.4246 1750.9354,-1752.5791"/>
<polygon fill="#7f7f7f" stroke="#7f7f7f" points="1748.3692,-1754.9876 1757.2003,-1760.841 1753.9469,-1750.758 1748.3692,-1754.9876"/>
</g>
<!-- Import Column -->
<g id="node17" class="node">
<title>Import Column</title>
<polygon fill="#c277f2" stroke="#c277f2" points="131.5572,-440 29.116,-440 29.116,-404 131.5572,-404 131.5572,-440"/>
<text text-anchor="middle" x="80.3366" y="-417.8" font-family="Times,serif" font-size="14.00" fill="#000000">Import Column</text>
</g>
<!-- Import Format -->
<g id="node18" class="node">
<title>Import Format</title>
<polygon fill="#c277f2" stroke="#c277f2" points="318.8482,-440 220.7654,-440 220.7654,-404 318.8482,-404 318.8482,-440"/>
<text text-anchor="middle" x="269.8068" y="-417.8" font-family="Times,serif" font-size="14.00" fill="#000000">Import Format</text>
</g>
<!-- Import Column&#45;&gt;Import Format -->
<g id="edge40" class="edge">
<title>Import Column-&gt;Import Format</title>
<path fill="none" stroke="#000000" stroke-width="2" d="M131.61,-422C155.9798,-422 185.2484,-422 210.5641,-422"/>
<polygon fill="#000000" stroke="#000000" stroke-width="2" points="210.7797,-425.5001 220.7796,-422 210.7796,-418.5001 210.7797,-425.5001"/>
<text text-anchor="middle" x="189.9488" y="-426.2" font-family="Times,serif" font-size="14.00" fill="#000000">MD</text>
</g>
<!-- Install Processor Log -->
<g id="node19" class="node">
<title>Install Processor Log</title>
<polygon fill="#c277f2" stroke="#c277f2" points="147.803,-494 12.8702,-494 12.8702,-458 147.803,-458 147.803,-494"/>
<text text-anchor="middle" x="80.3366" y="-471.8" font-family="Times,serif" font-size="14.00" fill="#000000">Install Processor Log</text>
</g>
<!-- Line Column -->
<g id="node20" class="node">
<title>Line Column</title>
<polygon fill="#c277f2" stroke="#c277f2" points="1305.1718,-2202 1214.6198,-2202 1214.6198,-2166 1305.1718,-2166 1305.1718,-2202"/>
<text text-anchor="middle" x="1259.8958" y="-2179.8" font-family="Times,serif" font-size="14.00" fill="#000000">Line Column</text>
</g>
<!-- Line Column&#45;&gt;Quote Template -->
<g id="edge42" class="edge">
<title>Line Column-&gt;Quote Template</title>
<path fill="none" stroke="#000000" stroke-width="2" d="M1305.2848,-2176.0116C1328.918,-2171.8522 1358.1975,-2166.6991 1384.0274,-2162.1531"/>
<polygon fill="#000000" stroke="#000000" stroke-width="2" points="1384.868,-2165.559 1394.1099,-2160.3785 1383.6546,-2158.6649 1384.868,-2165.559"/>
<text text-anchor="middle" x="1364.832" y="-2171.2" font-family="Times,serif" font-size="14.00" fill="#000000">MD</text>
</g>
<!-- Line Column&#45;&gt;Template Section -->
<g id="edge41" class="edge">
<title>Line Column-&gt;Template Section</title>
<path fill="none" stroke="#7f7f7f" d="M1305.1789,-2186.5919C1378.5495,-2190.3892 1527.9537,-2196.4522 1654.3882,-2191 1670.0072,-2190.3265 1686.7789,-2189.1439 1702.5731,-2187.8223"/>
<polygon fill="#7f7f7f" stroke="#7f7f7f" points="1703.1283,-2191.2874 1712.7891,-2186.9378 1702.5244,-2184.3135 1703.1283,-2191.2874"/>
</g>
<!-- Localization -->
<g id="node21" class="node">
<title>Localization</title>
<polygon fill="#c277f2" stroke="#c277f2" points="469.2129,-1660 383.2661,-1660 383.2661,-1624 469.2129,-1624 469.2129,-1660"/>
<text text-anchor="middle" x="426.2395" y="-1637.8" font-family="Times,serif" font-size="14.00" fill="#000000">Localization</text>
</g>
<!-- Localization&#45;&gt;Line Column -->
<g id="edge43" class="edge">
<title>Localization-&gt;Line Column</title>
<path fill="none" stroke="#7f7f7f" d="M434.4465,-1660.2317C448.3303,-1691.5768 476.7301,-1757.9191 495.0898,-1816 505.4219,-1848.6857 492.3902,-1863.6753 513.0898,-1891 568.6419,-1964.3321 609.708,-1954.6257 693.7722,-1992 742.1131,-2013.492 1072.5821,-2122.5477 1205.0975,-2166.0487"/>
<polygon fill="#7f7f7f" stroke="#7f7f7f" points="1204.0739,-2169.3963 1214.6667,-2169.1889 1206.2566,-2162.7453 1204.0739,-2169.3963"/>
</g>
<!-- Price Dimension -->
<g id="node27" class="node">
<title>Price Dimension</title>
<polygon fill="#c277f2" stroke="#c277f2" points="1650.7389,-848 1541.3369,-848 1541.3369,-812 1650.7389,-812 1650.7389,-848"/>
<text text-anchor="middle" x="1596.0379" y="-825.8" font-family="Times,serif" font-size="14.00" fill="#000000">Price Dimension</text>
</g>
<!-- Localization&#45;&gt;Price Dimension -->
<g id="edge44" class="edge">
<title>Localization-&gt;Price Dimension</title>
<path fill="none" stroke="#7f7f7f" d="M431.9326,-1623.8596C445.8715,-1578.4602 481.557,-1456.0397 495.0898,-1351 500.4296,-1309.5528 484.2379,-629.2316 513.0898,-599 600.0562,-507.8749 669.9336,-583.8988 795.8024,-579 1111.1155,-566.728 1240.3042,-485.7489 1500.6876,-664 1549.3195,-697.292 1576.3286,-764.1116 1588.3362,-802.0365"/>
<polygon fill="#7f7f7f" stroke="#7f7f7f" points="1585.0802,-803.3604 1591.3307,-811.9151 1591.7792,-801.3298 1585.0802,-803.3604"/>
</g>
<!-- Localization&#45;&gt;Product Feature -->
<g id="edge46" class="edge">
<title>Localization-&gt;Product Feature</title>
<path fill="none" stroke="#7f7f7f" d="M431.9382,-1623.8604C445.8898,-1578.4626 481.6021,-1456.0455 495.0898,-1351 500.6099,-1308.0081 483.7386,-602.8949 513.0898,-571 577.0382,-501.5096 841.2295,-526 935.6664,-526 935.6664,-526 935.6664,-526 1259.8958,-526 1315.6077,-526 1374.6757,-497.6679 1411.2958,-476.3046"/>
<polygon fill="#7f7f7f" stroke="#7f7f7f" points="1413.3142,-479.176 1420.1066,-471.0449 1409.7262,-473.1655 1413.3142,-479.176"/>
</g>
<!-- Localization&#45;&gt;Product Option -->
<g id="edge47" class="edge">
<title>Localization-&gt;Product Option</title>
<path fill="none" stroke="#7f7f7f" d="M431.9446,-1623.8612C445.911,-1578.4653 481.6541,-1456.0522 495.0898,-1351 497.9625,-1328.5385 498.0867,-552.961 513.0898,-536 561.6783,-481.0707 1093.7412,-452.0766 1166.2352,-441 1176.8291,-439.3813 1188.0896,-437.6163 1198.993,-435.8838"/>
<polygon fill="#7f7f7f" stroke="#7f7f7f" points="1199.5528,-439.3389 1208.8766,-434.3072 1198.4501,-432.4263 1199.5528,-439.3389"/>
</g>
<!-- Localization&#45;&gt;Quote Template -->
<g id="edge48" class="edge">
<title>Localization-&gt;Quote Template</title>
<path fill="none" stroke="#7f7f7f" d="M445.0222,-1660.1469C469.325,-1683.3087 513.3376,-1724.1854 553.641,-1756 719.0932,-1886.6043 759.0435,-1930.2567 954.1664,-2010 1103.7077,-2071.1149 1288.9602,-2116.4125 1384.2394,-2137.6248"/>
<polygon fill="#7f7f7f" stroke="#7f7f7f" points="1383.7702,-2141.1055 1394.29,-2139.8472 1385.2816,-2134.2706 1383.7702,-2141.1055"/>
</g>
<!-- Quote Term -->
<g id="node42" class="node">
<title>Quote Term</title>
<polygon fill="#c277f2" stroke="#c277f2" points="777.8175,-1826 693.7571,-1826 693.7571,-1790 777.8175,-1790 777.8175,-1826"/>
<text text-anchor="middle" x="735.7873" y="-1803.8" font-family="Times,serif" font-size="14.00" fill="#000000">Quote Term</text>
</g>
<!-- Localization&#45;&gt;Quote Term -->
<g id="edge49" class="edge">
<title>Localization-&gt;Quote Term</title>
<path fill="none" stroke="#7f7f7f" d="M459.9558,-1660.0809C516.5926,-1690.4533 630.7282,-1751.6604 692.9546,-1785.0303"/>
<polygon fill="#7f7f7f" stroke="#7f7f7f" points="691.6457,-1788.2998 702.1126,-1789.9414 694.9539,-1782.1309 691.6457,-1788.2998"/>
</g>
<!-- Template Content -->
<g id="node48" class="node">
<title>Template Content</title>
<polygon fill="#c277f2" stroke="#c277f2" points="1654.2389,-2145 1537.8369,-2145 1537.8369,-2109 1654.2389,-2109 1654.2389,-2145"/>
<text text-anchor="middle" x="1596.0379" y="-2122.8" font-family="Times,serif" font-size="14.00" fill="#000000">Template Content</text>
</g>
<!-- Localization&#45;&gt;Template Content -->
<g id="edge50" class="edge">
<title>Localization-&gt;Template Content</title>
<path fill="none" stroke="#7f7f7f" d="M434.8173,-1660.1205C449.2542,-1691.2997 478.4565,-1757.4014 495.0898,-1816 507.5405,-1859.8633 495.0887,-1875.1076 513.0898,-1917 525.0798,-1944.9032 529.4671,-1953.6159 553.641,-1972 792.2085,-2153.4294 889.6182,-2155.937 1184.2352,-2211 1258.2134,-2224.8263 1278.2986,-2212.5555 1353.5564,-2213 1363.579,-2213.0592 1366.1787,-2214.3682 1376.1076,-2213 1433.0817,-2205.1487 1448.0575,-2201.1898 1500.6876,-2178 1518.4065,-2170.1927 1520.7119,-2164.3133 1537.6876,-2155 1540.9323,-2153.2199 1544.308,-2151.4343 1547.7272,-2149.6742"/>
<polygon fill="#7f7f7f" stroke="#7f7f7f" points="1549.4625,-2152.7192 1556.8199,-2145.0956 1546.3142,-2146.4671 1549.4625,-2152.7192"/>
</g>
<!-- Localization&#45;&gt;Product -->
<g id="edge45" class="edge">
<title>Localization-&gt;Product</title>
<path fill="none" stroke="#7f7f7f" d="M469.3656,-1634.0563C493.0121,-1627.3153 520.5175,-1615.0556 535.641,-1593 557.2233,-1561.5252 548.4868,-1287.8139 553.641,-1250 566.102,-1158.5807 593.3606,-1052.5548 606.8396,-1003.0991"/>
<polygon fill="#7f7f7f" stroke="#7f7f7f" points="610.2974,-1003.7245 609.5728,-993.1545 603.5477,-1001.8693 610.2974,-1003.7245"/>
</g>
<!-- Lookup Data -->
<g id="node22" class="node">
<title>Lookup Data</title>
<polygon fill="#c277f2" stroke="#c277f2" points="125.3169,-548 35.3563,-548 35.3563,-512 125.3169,-512 125.3169,-548"/>
<text text-anchor="middle" x="80.3366" y="-525.8" font-family="Times,serif" font-size="14.00" fill="#000000">Lookup Data</text>
</g>
<!-- Lookup Query -->
<g id="node23" class="node">
<title>Lookup Query</title>
<polygon fill="#c277f2" stroke="#c277f2" points="129.371,-224 31.3022,-224 31.3022,-188 129.371,-188 129.371,-224"/>
<text text-anchor="middle" x="80.3366" y="-201.8" font-family="Times,serif" font-size="14.00" fill="#000000">Lookup Query</text>
</g>
<!-- Price Rule -->
<g id="node28" class="node">
<title>Price Rule</title>
<polygon fill="#c277f2" stroke="#c277f2" points="307.0122,-207 232.6014,-207 232.6014,-171 307.0122,-171 307.0122,-207"/>
<text text-anchor="middle" x="269.8068" y="-184.8" font-family="Times,serif" font-size="14.00" fill="#000000">Price Rule</text>
</g>
<!-- Lookup Query&#45;&gt;Price Rule -->
<g id="edge51" class="edge">
<title>Lookup Query-&gt;Price Rule</title>
<path fill="none" stroke="#000000" stroke-width="2" d="M129.6231,-201.5778C158.2357,-199.0106 194.0973,-195.7929 222.386,-193.2548"/>
<polygon fill="#000000" stroke="#000000" stroke-width="2" points="222.7909,-196.7326 232.4381,-192.3529 222.1653,-189.7606 222.7909,-196.7326"/>
<text text-anchor="middle" x="189.9488" y="-201.2" font-family="Times,serif" font-size="14.00" fill="#000000">MD</text>
</g>
<!-- Option Constraint -->
<g id="node24" class="node">
<title>Option Constraint</title>
<polygon fill="#c277f2" stroke="#c277f2" points="484.4558,-394 368.0232,-394 368.0232,-358 484.4558,-358 484.4558,-394"/>
<text text-anchor="middle" x="426.2395" y="-371.8" font-family="Times,serif" font-size="14.00" fill="#000000">Option Constraint</text>
</g>
<!-- Option Constraint&#45;&gt;Product Option -->
<g id="edge58" class="edge">
<title>Option Constraint-&gt;Product Option</title>
<path fill="none" stroke="#7f7f7f" d="M484.5293,-379.496C636.4123,-388.6055 1043.2881,-413.0086 1198.5412,-422.3202"/>
<polygon fill="#7f7f7f" stroke="#7f7f7f" points="1198.6467,-425.8327 1208.8383,-422.9377 1199.0658,-418.8452 1198.6467,-425.8327"/>
</g>
<!-- Option Constraint&#45;&gt;Product Option -->
<g id="edge59" class="edge">
<title>Option Constraint-&gt;Product Option</title>
<path fill="none" stroke="#000000" stroke-width="2" d="M484.6101,-365.1383C576.77,-349.5544 761.5197,-324.6653 917.1664,-343.2 1017.6832,-355.1697 1131.3504,-386.2255 1199.2358,-406.7148"/>
<polygon fill="#000000" stroke="#000000" stroke-width="2" points="1198.3268,-410.0965 1208.9125,-409.6576 1200.3635,-403.3994 1198.3268,-410.0965"/>
<text text-anchor="middle" x="856.4844" y="-348.2" font-family="Times,serif" font-size="14.00" fill="#000000">MD</text>
</g>
<!-- Option Constraint&#45;&gt;Product -->
<g id="edge57" class="edge">
<title>Option Constraint-&gt;Product</title>
<path fill="none" stroke="#7f7f7f" d="M463.5714,-394.1136C475.3064,-401.5335 487.2367,-411.1893 495.0898,-423 517.1936,-456.243 504.8194,-471.9452 513.0898,-511 548.1084,-676.367 592.1962,-874.3925 608.3792,-946.7592"/>
<polygon fill="#7f7f7f" stroke="#7f7f7f" points="605.0466,-947.8947 610.6458,-956.8891 611.8777,-946.3661 605.0466,-947.8947"/>
</g>
<!-- Price Action -->
<g id="node25" class="node">
<title>Price Action</title>
<polygon fill="#c277f2" stroke="#c277f2" points="123.7028,-91 36.9704,-91 36.9704,-55 123.7028,-55 123.7028,-91"/>
<text text-anchor="middle" x="80.3366" y="-68.8" font-family="Times,serif" font-size="14.00" fill="#000000">Price Action</text>
</g>
<!-- Price Action&#45;&gt;Price Rule -->
<g id="edge61" class="edge">
<title>Price Action-&gt;Price Rule</title>
<path fill="none" stroke="#000000" stroke-width="2" d="M117.2134,-91.1612C131.0367,-98.2589 146.7592,-106.6824 160.6732,-115 186.75,-130.5882 215.1198,-149.902 236.3969,-164.8892"/>
<polygon fill="#000000" stroke="#000000" stroke-width="2" points="234.5799,-167.8912 244.7629,-170.8164 238.6266,-162.1795 234.5799,-167.8912"/>
<text text-anchor="middle" x="189.9488" y="-145.2" font-family="Times,serif" font-size="14.00" fill="#000000">MD</text>
</g>
<!-- Price Action&#45;&gt;Summary Variable -->
<g id="edge60" class="edge">
<title>Price Action-&gt;Summary Variable</title>
<path fill="none" stroke="#7f7f7f" d="M123.6137,-74.6197C215.4138,-78.0556 430.4501,-86.1038 543.0623,-90.3185"/>
<polygon fill="#7f7f7f" stroke="#7f7f7f" points="543.1788,-93.8253 553.3027,-90.7018 543.4406,-86.8302 543.1788,-93.8253"/>
</g>
<!-- Price Condition -->
<g id="node26" class="node">
<title>Price Condition</title>
<polygon fill="#c277f2" stroke="#c277f2" points="132.6084,-160 28.0648,-160 28.0648,-124 132.6084,-124 132.6084,-160"/>
<text text-anchor="middle" x="80.3366" y="-137.8" font-family="Times,serif" font-size="14.00" fill="#000000">Price Condition</text>
</g>
<!-- Price Condition&#45;&gt;Price Rule -->
<g id="edge63" class="edge">
<title>Price Condition-&gt;Price Rule</title>
<path fill="none" stroke="#000000" stroke-width="2" d="M132.6117,-154.9674C160.8051,-161.961 195.3243,-170.5239 222.6841,-177.3107"/>
<polygon fill="#000000" stroke="#000000" stroke-width="2" points="221.8666,-180.714 232.4151,-179.7246 223.552,-173.9199 221.8666,-180.714"/>
<text text-anchor="middle" x="189.9488" y="-176.2" font-family="Times,serif" font-size="14.00" fill="#000000">MD</text>
</g>
<!-- Price Condition&#45;&gt;Summary Variable -->
<g id="edge62" class="edge">
<title>Price Condition-&gt;Summary Variable</title>
<path fill="none" stroke="#7f7f7f" d="M132.5472,-137.2125C228.7153,-128.3942 433.9594,-109.5739 543.0625,-99.5695"/>
<polygon fill="#7f7f7f" stroke="#7f7f7f" points="543.6753,-103.0281 553.3139,-98.6295 543.036,-96.0574 543.6753,-103.0281"/>
</g>
<!-- Price Dimension&#45;&gt;Discount Schedule -->
<g id="edge64" class="edge">
<title>Price Dimension-&gt;Discount Schedule</title>
<path fill="none" stroke="#7f7f7f" d="M1541.3281,-830C1513.2483,-830 1478.4934,-830 1447.3976,-830 1039.9252,-830 1039.9252,-830 1039.9252,-830 1000.8859,-830 987.1452,-828.1084 954.1664,-849 915.5561,-873.4591 886.1132,-918.7891 870.0758,-947.8883"/>
<polygon fill="#7f7f7f" stroke="#7f7f7f" points="866.9822,-946.2512 865.3452,-956.7188 873.1526,-949.5567 866.9822,-946.2512"/>
</g>
<!-- Price Dimension&#45;&gt;Product -->
<g id="edge66" class="edge">
<title>Price Dimension-&gt;Product</title>
<path fill="none" stroke="#7f7f7f" d="M1588.6763,-811.9667C1570.9075,-771.7035 1521.5855,-678 1447.3976,-678 1154.9596,-678 1154.9596,-678 1154.9596,-678 1051.965,-678 773.6943,-659.0358 693.7722,-724 658.6448,-752.5531 630.5238,-887.3026 619.6108,-946.7289"/>
<polygon fill="#7f7f7f" stroke="#7f7f7f" points="616.1059,-946.4435 617.7755,-956.906 622.9947,-947.6859 616.1059,-946.4435"/>
</g>
<!-- Price Dimension&#45;&gt;Price Book -->
<g id="edge65" class="edge">
<title>Price Dimension-&gt;Price Book</title>
<path fill="none" stroke="#7f7f7f" d="M1630.7635,-848.2594C1651.567,-860.6056 1677.311,-878.546 1694.9394,-900 1730.1126,-942.8062 1752.1277,-1004.6924 1762.6738,-1040.1777"/>
<polygon fill="#7f7f7f" stroke="#7f7f7f" points="1759.3341,-1041.2286 1765.4632,-1049.8706 1766.0611,-1039.2927 1759.3341,-1041.2286"/>
</g>
<!-- Price Rule&#45;&gt;Option Constraint -->
<g id="edge67" class="edge">
<title>Price Rule-&gt;Option Constraint</title>
<path fill="none" stroke="#7f7f7f" d="M284.5133,-207.2386C295.3036,-221.1573 309.8518,-241.0959 320.3892,-260 341.0464,-297.0591 327.2124,-318.1761 357.3892,-348 358.8003,-349.3946 360.2903,-350.7227 361.8445,-351.9872"/>
<polygon fill="#7f7f7f" stroke="#7f7f7f" points="359.8937,-354.8942 370.084,-357.7939 363.9261,-349.1723 359.8937,-354.8942"/>
</g>
<!-- Process Input -->
<g id="node29" class="node">
<title>Process Input</title>
<polygon fill="#c277f2" stroke="#c277f2" points="1085.7382,-149 994.1122,-149 994.1122,-113 1085.7382,-113 1085.7382,-149"/>
<text text-anchor="middle" x="1039.9252" y="-126.8" font-family="Times,serif" font-size="14.00" fill="#000000">Process Input</text>
</g>
<!-- Process Input Condition -->
<g id="node30" class="node">
<title>Process Input Condition</title>
<polygon fill="#c277f2" stroke="#c277f2" points="1335.7173,-127 1184.0743,-127 1184.0743,-91 1335.7173,-91 1335.7173,-127"/>
<text text-anchor="middle" x="1259.8958" y="-104.8" font-family="Times,serif" font-size="14.00" fill="#000000">Process Input Condition</text>
</g>
<!-- Process Input&#45;&gt;Process Input Condition -->
<g id="edge68" class="edge">
<title>Process Input-&gt;Process Input Condition</title>
<path fill="none" stroke="#7f7f7f" d="M1085.9317,-120.9897C1103.865,-117.5052 1124.649,-113.9764 1143.684,-112 1153.4703,-110.9839 1163.7436,-110.246 1173.9636,-109.7172"/>
<polygon fill="#7f7f7f" stroke="#7f7f7f" points="1174.3147,-113.2049 1184.1458,-109.2555 1173.9975,-106.2121 1174.3147,-113.2049"/>
</g>
<!-- Quote Process -->
<g id="node40" class="node">
<title>Quote Process</title>
<polygon fill="#c277f2" stroke="#c277f2" points="1308.3704,-191 1211.4212,-191 1211.4212,-155 1308.3704,-155 1308.3704,-191"/>
<text text-anchor="middle" x="1259.8958" y="-168.8" font-family="Times,serif" font-size="14.00" fill="#000000">Quote Process</text>
</g>
<!-- Process Input&#45;&gt;Quote Process -->
<g id="edge69" class="edge">
<title>Process Input-&gt;Quote Process</title>
<path fill="none" stroke="#000000" stroke-width="2" d="M1085.7705,-139.7535C1119.3772,-146.1701 1165.2649,-154.9317 1201.4966,-161.8496"/>
<polygon fill="#000000" stroke="#000000" stroke-width="2" points="1200.9625,-165.3108 1211.4415,-163.7484 1202.2754,-158.435 1200.9625,-165.3108"/>
<text text-anchor="middle" x="1154.9596" y="-159.2" font-family="Times,serif" font-size="14.00" fill="#000000">MD</text>
</g>
<!-- Process Input Condition&#45;&gt;Process Input -->
<g id="edge70" class="edge">
<title>Process Input Condition-&gt;Process Input</title>
<path fill="none" stroke="#000000" stroke-width="2" d="M1183.8015,-116.6104C1154.9836,-119.4926 1122.7255,-122.7189 1096.0687,-125.3849"/>
<polygon fill="#000000" stroke="#000000" stroke-width="2" points="1095.3725,-121.937 1085.7705,-126.4149 1096.0692,-128.9022 1095.3725,-121.937"/>
<text text-anchor="middle" x="1154.9596" y="-124.2" font-family="Times,serif" font-size="14.00" fill="#000000">MD</text>
</g>
<!-- Process Input Values -->
<g id="node31" class="node">
<title>Process Input Values</title>
<polygon fill="#c277f2" stroke="#c277f2" points="1107.1091,-1912 972.7413,-1912 972.7413,-1876 1107.1091,-1876 1107.1091,-1912"/>
<text text-anchor="middle" x="1039.9252" y="-1889.8" font-family="Times,serif" font-size="14.00" fill="#000000">Process Input Values</text>
</g>
<!-- Process Input Values&#45;&gt;Quote -->
<g id="edge71" class="edge">
<title>Process Input Values-&gt;Quote</title>
<path fill="none" stroke="#7f7f7f" d="M1088.9639,-1875.8814C1100.9893,-1871.3887 1113.8151,-1866.5554 1125.684,-1862 1158.8038,-1849.2882 1196.3496,-1834.4224 1223.2905,-1823.6753"/>
<polygon fill="#7f7f7f" stroke="#7f7f7f" points="1224.7199,-1826.8733 1232.7085,-1819.9138 1222.1236,-1820.3726 1224.7199,-1826.8733"/>
</g>
<!-- Process Input Values&#45;&gt;User -->
<g id="edge72" class="edge">
<title>Process Input Values-&gt;User</title>
<path fill="none" stroke="#7f7f7f" d="M1100.198,-1912.0267C1108.8056,-1914.876 1117.5082,-1917.9075 1125.684,-1921 1133.8723,-1924.0973 1135.1202,-1927.1826 1143.684,-1929 1153.4884,-1931.0806 1156.2135,-1929.1479 1166.2352,-1929 1241.5137,-1927.8888 1261.1057,-1935.1884 1335.5564,-1924 1499.3921,-1899.3789 1542.9258,-1890.8801 1694.9394,-1825 1708.9485,-1818.9287 1723.4584,-1810.6019 1735.9505,-1802.7001"/>
<polygon fill="#7f7f7f" stroke="#7f7f7f" points="1738.1655,-1805.4354 1744.654,-1797.0599 1734.3586,-1799.5611 1738.1655,-1805.4354"/>
</g>
<!-- Product Action -->
<g id="node32" class="node">
<title>Product Action</title>
<polygon fill="#c277f2" stroke="#c277f2" points="476.8904,-339 375.5886,-339 375.5886,-303 476.8904,-303 476.8904,-339"/>
<text text-anchor="middle" x="426.2395" y="-316.8" font-family="Times,serif" font-size="14.00" fill="#000000">Product Action</text>
</g>
<!-- Product Action&#45;&gt;Product Rule -->
<g id="edge77" class="edge">
<title>Product Action-&gt;Product Rule</title>
<path fill="none" stroke="#000000" stroke-width="2" d="M474.628,-302.8635C481.6064,-299.806 488.6126,-296.4849 495.0898,-293 526.4882,-276.1071 559.7511,-252.8122 583.2082,-235.367"/>
<polygon fill="#000000" stroke="#000000" stroke-width="2" points="585.49,-238.0306 591.385,-229.2272 581.2868,-232.4329 585.49,-238.0306"/>
<text text-anchor="middle" x="524.3654" y="-286.2" font-family="Times,serif" font-size="14.00" fill="#000000">MD</text>
</g>
<!-- Product Action&#45;&gt;Product -->
<g id="edge76" class="edge">
<title>Product Action-&gt;Product</title>
<path fill="none" stroke="#7f7f7f" d="M476.896,-336.0716C483.5515,-339.5655 489.8637,-343.8244 495.0898,-349 528.2908,-381.8798 523.0799,-400.9933 535.641,-446 587.7345,-632.6522 607.4372,-866.5215 612.9409,-946.5955"/>
<polygon fill="#7f7f7f" stroke="#7f7f7f" points="609.4672,-947.1079 613.6251,-956.8527 616.4516,-946.6419 609.4672,-947.1079"/>
</g>
<!-- Product Feature&#45;&gt;Discount Schedule -->
<g id="edge79" class="edge">
<title>Product Feature-&gt;Discount Schedule</title>
<path fill="none" stroke="#7f7f7f" d="M1434.6669,-471.1241C1421.2545,-489.5534 1398.9456,-518.3934 1376.1076,-540 1275.9705,-634.7377 1243.7349,-651.8196 1125.684,-723 1044.9931,-771.6537 1001.9729,-749.5537 935.1664,-816 897.5657,-853.398 874.9502,-912.4194 864.1722,-947.0572"/>
<polygon fill="#7f7f7f" stroke="#7f7f7f" points="860.7187,-946.3893 861.2039,-956.9731 867.4247,-948.3968 860.7187,-946.3893"/>
</g>
<!-- Product Feature&#45;&gt;Product -->
<g id="edge78" class="edge">
<title>Product Feature-&gt;Product</title>
<path fill="none" stroke="#7f7f7f" d="M1418.8305,-434.7437C1396.9883,-421.9199 1365.613,-405.8763 1335.5564,-399 1170.3046,-361.194 1115.0288,-350.5143 954.1664,-404 819.2078,-448.8729 771.3021,-470.767 693.7722,-590 654.96,-649.6892 626.8854,-867.9001 617.8334,-946.5231"/>
<polygon fill="#7f7f7f" stroke="#7f7f7f" points="614.3331,-946.3289 616.6833,-956.6598 621.2885,-947.1181 614.3331,-946.3289"/>
</g>
<!-- Product Option&#45;&gt;Discount Schedule -->
<g id="edge81" class="edge">
<title>Product Option-&gt;Discount Schedule</title>
<path fill="none" stroke="#7f7f7f" d="M1208.8634,-435.4223C1199.4151,-439.3863 1190.5496,-445.0135 1184.2352,-453 1139.0316,-510.1737 1203.3737,-553.2869 1166.2352,-616 1102.3263,-723.9184 1013.0188,-679.6653 935.1664,-778 893.9483,-830.0622 871.7603,-906.5118 862.2426,-947.17"/>
<polygon fill="#7f7f7f" stroke="#7f7f7f" points="858.8263,-946.4095 860.041,-956.9344 865.6549,-947.9492 858.8263,-946.4095"/>
</g>
<!-- Product Option&#45;&gt;Product Feature -->
<g id="edge80" class="edge">
<title>Product Option-&gt;Product Feature</title>
<path fill="none" stroke="#7f7f7f" d="M1311.1315,-433.3779C1333.8068,-436.6431 1360.6919,-440.5145 1384.565,-443.9522"/>
<polygon fill="#7f7f7f" stroke="#7f7f7f" points="1384.194,-447.4348 1394.5908,-445.3959 1385.1918,-440.5063 1384.194,-447.4348"/>
</g>
<!-- Product Option&#45;&gt;Product -->
<g id="edge82" class="edge">
<title>Product Option-&gt;Product</title>
<path fill="none" stroke="#7f7f7f" d="M1208.7049,-437.3309C1199.719,-441.1435 1191.0714,-446.2269 1184.2352,-453 1167.7539,-469.3291 1182.909,-485.8675 1166.2352,-502 1088.843,-576.88 1039.4003,-547.3515 936.1664,-578 829.3517,-609.7116 771.568,-562.2327 693.7722,-642 651.0553,-685.7995 625.9008,-874.6092 617.695,-946.7925"/>
<polygon fill="#7f7f7f" stroke="#7f7f7f" points="614.192,-946.626 616.5652,-956.9516 621.1492,-947.3998 614.192,-946.626"/>
</g>
<!-- Quote&#45;&gt;Quote Template -->
<g id="edge83" class="edge">
<title>Quote-&gt;Quote Template</title>
<path fill="none" stroke="#7f7f7f" d="M1287.2522,-1820.2506C1303.6758,-1828.3812 1323.6318,-1840.9405 1335.5564,-1858 1356.1876,-1887.5152 1342.275,-1902.8017 1353.5564,-1937 1376.3924,-2006.2249 1413.4028,-2083.7007 1433.4395,-2123.7411"/>
<polygon fill="#7f7f7f" stroke="#7f7f7f" points="1430.4068,-2125.5006 1438.0321,-2132.8562 1436.6581,-2122.3508 1430.4068,-2125.5006"/>
</g>
<!-- Quote&#45;&gt;Opportunity -->
<g id="edge85" class="edge">
<title>Quote-&gt;Opportunity</title>
<path fill="none" stroke="#7f7f7f" d="M1287.1527,-1815.3866C1301.8423,-1819.2957 1320.0775,-1824.9134 1335.5564,-1832 1363.5457,-1844.8141 1365.8898,-1856.6972 1394.1076,-1869 1503.4327,-1916.6652 1643.229,-1937.2472 1717.7688,-1945.3357"/>
<polygon fill="#7f7f7f" stroke="#7f7f7f" points="1717.5323,-1948.8301 1727.8436,-1946.3956 1718.2648,-1941.8685 1717.5323,-1948.8301"/>
</g>
<!-- Quote&#45;&gt;Contract -->
<g id="edge84" class="edge">
<title>Quote-&gt;Contract</title>
<path fill="none" stroke="#7f7f7f" d="M1287.119,-1795.0629C1345.6643,-1769.9322 1483.8907,-1718.688 1553.8737,-1695.8985"/>
<polygon fill="#7f7f7f" stroke="#7f7f7f" points="1555.2343,-1699.1377 1563.6862,-1692.749 1553.095,-1692.4726 1555.2343,-1699.1377"/>
</g>
<!-- Quote Document -->
<g id="node37" class="node">
<title>Quote Document</title>
<polygon fill="#c277f2" stroke="#c277f2" points="1095.954,-1966 983.8964,-1966 983.8964,-1930 1095.954,-1930 1095.954,-1966"/>
<text text-anchor="middle" x="1039.9252" y="-1943.8" font-family="Times,serif" font-size="14.00" fill="#000000">Quote Document</text>
</g>
<!-- Quote Document&#45;&gt;Quote -->
<g id="edge87" class="edge">
<title>Quote Document-&gt;Quote</title>
<path fill="none" stroke="#000000" stroke-width="2" d="M1096.1305,-1933.7821C1106.2597,-1930.2557 1116.5072,-1926.0159 1125.684,-1921 1168.3998,-1897.6521 1210.2783,-1859.5907 1235.5981,-1834.421"/>
<polygon fill="#000000" stroke="#000000" stroke-width="2" points="1238.3485,-1836.6183 1242.907,-1827.0542 1233.3792,-1831.6881 1238.3485,-1836.6183"/>
<text text-anchor="middle" x="1154.9596" y="-1912.2" font-family="Times,serif" font-size="14.00" fill="#000000">MD</text>
</g>
<!-- Quote Document&#45;&gt;Opportunity -->
<g id="edge86" class="edge">
<title>Quote Document-&gt;Opportunity</title>
<path fill="none" stroke="#7f7f7f" d="M1088.0633,-1966.0494C1113.7001,-1975.5895 1140.6027,-1985.4535 1143.684,-1986 1153.5527,-1987.7503 1156.2167,-1986.2935 1166.2352,-1986 1370.4492,-1980.0182 1612.9871,-1962.3414 1717.6993,-1954.1963"/>
<polygon fill="#7f7f7f" stroke="#7f7f7f" points="1717.9981,-1957.6837 1727.695,-1953.4151 1717.4526,-1950.705 1717.9981,-1957.6837"/>
</g>
<!-- Quote Line&#45;&gt;Block Price -->
<g id="edge91" class="edge">
<title>Quote Line-&gt;Block Price</title>
<path fill="none" stroke="#7f7f7f" d="M1077.7395,-1154.9499C1115.1186,-1137.1075 1172.4094,-1109.7605 1212.7403,-1090.5091"/>
<polygon fill="#7f7f7f" stroke="#7f7f7f" points="1214.322,-1093.6324 1221.8388,-1086.166 1211.3065,-1087.3152 1214.322,-1093.6324"/>
</g>
<!-- Quote Line&#45;&gt;Contracted Price -->
<g id="edge93" class="edge">
<title>Quote Line-&gt;Contracted Price</title>
<path fill="none" stroke="#7f7f7f" d="M1054.02,-1191.3257C1091.8112,-1240.4608 1195.5107,-1375.2881 1239.6144,-1432.6306"/>
<polygon fill="#7f7f7f" stroke="#7f7f7f" points="1237.0474,-1435.0341 1245.9184,-1440.827 1242.5961,-1430.7665 1237.0474,-1435.0341"/>
</g>
<!-- Quote Line&#45;&gt;Cost -->
<g id="edge92" class="edge">
<title>Quote Line-&gt;Cost</title>
<path fill="none" stroke="#7f7f7f" d="M1055.6483,-1154.8172C1089.09,-1116.1123 1164.3922,-1028.7755 1166.2352,-1025 1183.7476,-989.1253 1172.5559,-975.1743 1184.2352,-937 1201.6571,-880.0556 1230.1416,-816.3905 1246.7422,-781.1695"/>
<polygon fill="#7f7f7f" stroke="#7f7f7f" points="1249.9597,-782.5532 1251.0903,-772.0188 1243.6372,-779.5489 1249.9597,-782.5532"/>
</g>
<!-- Quote Line&#45;&gt;Discount Schedule -->
<g id="edge94" class="edge">
<title>Quote Line-&gt;Discount Schedule</title>
<path fill="none" stroke="#7f7f7f" d="M1019.0308,-1154.9286C983.4169,-1119.5398 911.4238,-1041.8058 876.4522,-1000.953"/>
<polygon fill="#7f7f7f" stroke="#7f7f7f" points="879.1051,-998.6698 869.9732,-993.2977 873.7619,-1003.192 879.1051,-998.6698"/>
</g>
<!-- Quote Line&#45;&gt;Discount Tier -->
<g id="edge90" class="edge">
<title>Quote Line-&gt;Discount Tier</title>
<path fill="none" stroke="#7f7f7f" d="M1059.0613,-1154.8182C1098.3877,-1117.4532 1188.3639,-1031.9644 1233.3162,-989.254"/>
<polygon fill="#7f7f7f" stroke="#7f7f7f" points="1235.8085,-991.7139 1240.6473,-982.2886 1230.9869,-986.6392 1235.8085,-991.7139"/>
</g>
<!-- Quote Line&#45;&gt;Product Option -->
<g id="edge95" class="edge">
<title>Quote Line-&gt;Product Option</title>
<path fill="none" stroke="#7f7f7f" d="M1050.7126,-1154.9481C1069.3617,-1122.8158 1107.3844,-1053.0477 1125.684,-989 1166.8861,-844.7949 1150.5334,-803.1515 1166.2352,-654 1170.9303,-609.401 1156.7869,-488.4641 1184.2352,-453 1188.422,-447.5905 1193.7818,-443.2627 1199.7114,-439.8007"/>
<polygon fill="#7f7f7f" stroke="#7f7f7f" points="1201.334,-442.9029 1208.7363,-435.3229 1198.2227,-436.6323 1201.334,-442.9029"/>
</g>
<!-- Quote Line&#45;&gt;Quote -->
<g id="edge98" class="edge">
<title>Quote Line-&gt;Quote</title>
<path fill="none" stroke="#000000" stroke-width="2" d="M1057.8846,-1191.21C1078.4575,-1213.3805 1111.1887,-1252.971 1125.684,-1294 1168.2581,-1414.5067 1111.5831,-1457.2908 1143.684,-1581 1154.1971,-1621.5149 1165.4322,-1628.6044 1184.2352,-1666 1204.6399,-1706.5812 1229.4581,-1752.9569 1244.9708,-1781.6117"/>
<polygon fill="#000000" stroke="#000000" stroke-width="2" points="1242.0105,-1783.4949 1249.8551,-1790.6162 1248.1636,-1780.1572 1242.0105,-1783.4949"/>
<text text-anchor="middle" x="1154.9596" y="-1637.2" font-family="Times,serif" font-size="14.00" fill="#000000">MD</text>
</g>
<!-- Quote Line&#45;&gt;Quote Line -->
<g id="edge97" class="edge">
<title>Quote Line-&gt;Quote Line</title>
<path fill="none" stroke="#7f7f7f" d="M1021.1107,-1191.1527C1018.2162,-1200.5391 1024.4877,-1209 1039.9252,-1209 1049.3324,-1209 1055.336,-1205.8581 1057.9358,-1201.2796"/>
<polygon fill="#7f7f7f" stroke="#7f7f7f" points="1061.4373,-1201.3983 1058.7397,-1191.1527 1054.4593,-1200.8444 1061.4373,-1201.3983"/>
</g>
<!-- Subscription -->
<g id="node46" class="node">
<title>Subscription</title>
<polygon fill="#c277f2" stroke="#c277f2" points="1490.6721,-1268 1404.1231,-1268 1404.1231,-1232 1490.6721,-1232 1490.6721,-1268"/>
<text text-anchor="middle" x="1447.3976" y="-1245.8" font-family="Times,serif" font-size="14.00" fill="#000000">Subscription</text>
</g>
<!-- Quote Line&#45;&gt;Subscription -->
<g id="edge89" class="edge">
<title>Quote Line-&gt;Subscription</title>
<path fill="none" stroke="#7f7f7f" d="M1079.7765,-1172.8929C1136.7152,-1178.3924 1244.5336,-1195.339 1335.5564,-1214 1356.3971,-1218.2727 1379.2551,-1223.6635 1398.8446,-1229.1507"/>
<polygon fill="#7f7f7f" stroke="#7f7f7f" points="1397.8893,-1232.5178 1408.4682,-1231.9352 1399.835,-1225.7936 1397.8893,-1232.5178"/>
</g>
<!-- Quote Line&#45;&gt;Product -->
<g id="edge96" class="edge">
<title>Quote Line-&gt;Product</title>
<path fill="none" stroke="#7f7f7f" d="M1000.1955,-1176.6504C929.5206,-1180.8664 781.1859,-1179.1037 693.7722,-1102 662.2355,-1074.1829 638.9634,-1030.7513 626.1168,-1002.5834"/>
<polygon fill="#7f7f7f" stroke="#7f7f7f" points="629.2591,-1001.035 622.0112,-993.3073 622.858,-1003.8682 629.2591,-1001.035"/>
</g>
<!-- Asset -->
<g id="node58" class="node">
<title>Asset</title>
<polygon fill="#009edb" stroke="#009edb" points="1286.8958,-1268 1232.8958,-1268 1232.8958,-1232 1286.8958,-1232 1286.8958,-1268"/>
<text text-anchor="middle" x="1259.8958" y="-1245.8" font-family="Times,serif" font-size="14.00" fill="#000000">Asset</text>
</g>
<!-- Quote Line&#45;&gt;Asset -->
<g id="edge88" class="edge">
<title>Quote Line-&gt;Asset</title>
<path fill="none" stroke="#7f7f7f" d="M1079.7602,-1181.604C1120.7072,-1194.0017 1183.9178,-1216.1858 1223.5437,-1232.1073"/>
<polygon fill="#7f7f7f" stroke="#7f7f7f" points="1222.258,-1235.3628 1232.8387,-1235.9088 1224.9079,-1228.8837 1222.258,-1235.3628"/>
</g>
<!-- Quote Line Group -->
<g id="node39" class="node">
<title>Quote Line Group</title>
<polygon fill="#c277f2" stroke="#c277f2" points="1099.0626,-237 980.7878,-237 980.7878,-201 1099.0626,-201 1099.0626,-237"/>
<text text-anchor="middle" x="1039.9252" y="-214.8" font-family="Times,serif" font-size="14.00" fill="#000000">Quote Line Group</text>
</g>
<!-- Quote Line Group&#45;&gt;Quote -->
<g id="edge102" class="edge">
<title>Quote Line Group-&gt;Quote</title>
<path fill="none" stroke="#000000" stroke-width="2" d="M1042.8431,-237.2455C1054.7824,-312.4781 1100.4717,-606.0809 1125.684,-849 1135.0794,-939.5243 1159.1628,-1578.5111 1184.2352,-1666 1196.6633,-1709.3672 1223.2797,-1754.6075 1241.3884,-1782.2991"/>
<polygon fill="#000000" stroke="#000000" stroke-width="2" points="1238.4887,-1784.2594 1246.9401,-1790.6487 1244.3177,-1780.3835 1238.4887,-1784.2594"/>
<text text-anchor="middle" x="1154.9596" y="-1509.2" font-family="Times,serif" font-size="14.00" fill="#000000">MD</text>
</g>
<!-- Quote Line Group&#45;&gt;Quote Line Group -->
<g id="edge101" class="edge">
<title>Quote Line Group-&gt;Quote Line Group</title>
<path fill="none" stroke="#7f7f7f" d="M1021.1107,-237.1527C1018.2162,-246.5391 1024.4877,-255 1039.9252,-255 1049.3324,-255 1055.336,-251.8581 1057.9358,-247.2796"/>
<polygon fill="#7f7f7f" stroke="#7f7f7f" points="1061.4373,-247.3983 1058.7397,-237.1527 1054.4593,-246.8444 1061.4373,-247.3983"/>
</g>
<!-- Quote Line Group&#45;&gt;Quote Process -->
<g id="edge99" class="edge">
<title>Quote Line Group-&gt;Quote Process</title>
<path fill="none" stroke="#7f7f7f" d="M1099.1626,-206.6123C1130.8539,-199.9851 1169.7447,-191.8523 1201.3329,-185.2466"/>
<polygon fill="#7f7f7f" stroke="#7f7f7f" points="1202.242,-188.6323 1211.3138,-183.1594 1200.8091,-181.7805 1202.242,-188.6323"/>
</g>
<!-- Solution Group -->
<g id="node44" class="node">
<title>Solution Group</title>
<polygon fill="#c277f2" stroke="#c277f2" points="1311.1178,-246 1208.6738,-246 1208.6738,-210 1311.1178,-210 1311.1178,-246"/>
<text text-anchor="middle" x="1259.8958" y="-223.8" font-family="Times,serif" font-size="14.00" fill="#000000">Solution Group</text>
</g>
<!-- Quote Line Group&#45;&gt;Solution Group -->
<g id="edge100" class="edge">
<title>Quote Line Group-&gt;Solution Group</title>
<path fill="none" stroke="#7f7f7f" d="M1099.1626,-221.4237C1129.8021,-222.6773 1167.1712,-224.2062 1198.1641,-225.4743"/>
<polygon fill="#7f7f7f" stroke="#7f7f7f" points="1198.2767,-228.9817 1208.4114,-225.8935 1198.5629,-221.9876 1198.2767,-228.9817"/>
</g>
<!-- Quote Template&#45;&gt;Template Content -->
<g id="edge103" class="edge">
<title>Quote Template-&gt;Template Content</title>
<path fill="none" stroke="#7f7f7f" d="M1500.6403,-2142.4032C1509.3558,-2140.996 1518.4929,-2139.5207 1527.5153,-2138.0639"/>
<polygon fill="#7f7f7f" stroke="#7f7f7f" points="1528.3104,-2141.4809 1537.6247,-2136.4316 1527.1946,-2134.5704 1528.3104,-2141.4809"/>
</g>
<!-- Quote Term&#45;&gt;Quote -->
<g id="edge104" class="edge">
<title>Quote Term-&gt;Quote</title>
<path fill="none" stroke="#7f7f7f" d="M778.2333,-1808.081C878.3125,-1808.2719 1127.7265,-1808.7478 1222.5272,-1808.9287"/>
<polygon fill="#7f7f7f" stroke="#7f7f7f" points="1222.7749,-1812.4291 1232.7816,-1808.9483 1222.7883,-1805.4291 1222.7749,-1812.4291"/>
</g>
<!-- Quote Term&#45;&gt;Quote Term -->
<g id="edge105" class="edge">
<title>Quote Term-&gt;Quote Term</title>
<path fill="none" stroke="#7f7f7f" d="M714.0783,-1826.1527C710.7385,-1835.5391 717.9748,-1844 735.7873,-1844 746.6418,-1844 753.569,-1840.8581 756.5688,-1836.2796"/>
<polygon fill="#7f7f7f" stroke="#7f7f7f" points="760.0695,-1836.4303 757.4963,-1826.1527 753.0987,-1835.7918 760.0695,-1836.4303"/>
</g>
<!-- Quote Term&#45;&gt;Template Content -->
<g id="edge106" class="edge">
<title>Quote Term-&gt;Template Content</title>
<path fill="none" stroke="#7f7f7f" d="M753.8315,-1826.1944C789.0776,-1860.6598 870.9305,-1935.5401 954.1664,-1975 967.3269,-1981.239 1365.1226,-2073.5985 1527.7599,-2111.2254"/>
<polygon fill="#7f7f7f" stroke="#7f7f7f" points="1527.1289,-2114.6718 1537.6605,-2113.5155 1528.7065,-2107.8519 1527.1289,-2114.6718"/>
</g>
<!-- Search Filter -->
<g id="node43" class="node">
<title>Search Filter</title>
<polygon fill="#c277f2" stroke="#c277f2" points="124.2532,-278 36.42,-278 36.42,-242 124.2532,-242 124.2532,-278"/>
<text text-anchor="middle" x="80.3366" y="-255.8" font-family="Times,serif" font-size="14.00" fill="#000000">Search Filter</text>
</g>
<!-- Search Filter&#45;&gt;Custom Action -->
<g id="edge107" class="edge">
<title>Search Filter-&gt;Custom Action</title>
<path fill="none" stroke="#7f7f7f" d="M124.2811,-266.2622C149.498,-269.8557 181.5314,-274.4205 209.1208,-278.3521"/>
<polygon fill="#7f7f7f" stroke="#7f7f7f" points="208.6696,-281.8231 219.0634,-279.7689 209.6572,-274.8931 208.6696,-281.8231"/>
</g>
<!-- Subscribed Asset -->
<g id="node45" class="node">
<title>Subscribed Asset</title>
<polygon fill="#c277f2" stroke="#c277f2" points="1096.234,-1339 983.6164,-1339 983.6164,-1303 1096.234,-1303 1096.234,-1339"/>
<text text-anchor="middle" x="1039.9252" y="-1316.8" font-family="Times,serif" font-size="14.00" fill="#000000">Subscribed Asset</text>
</g>
<!-- Subscribed Asset&#45;&gt;Subscription -->
<g id="edge109" class="edge">
<title>Subscribed Asset-&gt;Subscription</title>
<path fill="none" stroke="#000000" stroke-width="2" d="M1096.3191,-1314.2052C1156.0071,-1306.6409 1252.8267,-1293.3075 1335.5564,-1277 1354.8263,-1273.2016 1375.7931,-1268.3378 1394.3103,-1263.7874"/>
<polygon fill="#000000" stroke="#000000" stroke-width="2" points="1395.1715,-1267.1799 1404.0328,-1261.3723 1393.4839,-1260.3864 1395.1715,-1267.1799"/>
<text text-anchor="middle" x="1259.8958" y="-1305.2" font-family="Times,serif" font-size="14.00" fill="#000000">MD</text>
</g>
<!-- Subscribed Asset&#45;&gt;Asset -->
<g id="edge108" class="edge">
<title>Subscribed Asset-&gt;Asset</title>
<path fill="none" stroke="#7f7f7f" d="M1096.2364,-1306.6464C1118.219,-1300.7179 1143.545,-1293.4849 1166.2352,-1286 1185.1813,-1279.7501 1205.9202,-1271.8875 1223.0562,-1265.1058"/>
<polygon fill="#7f7f7f" stroke="#7f7f7f" points="1224.7004,-1268.218 1232.6885,-1261.2582 1222.1036,-1261.7175 1224.7004,-1268.218"/>
</g>
<!-- Subscription&#45;&gt;Price Dimension -->
<g id="edge112" class="edge">
<title>Subscription-&gt;Price Dimension</title>
<path fill="none" stroke="#7f7f7f" d="M1453.7845,-1231.9531C1477.0774,-1166.1365 1557.5806,-938.6656 1586.0038,-858.3525"/>
<polygon fill="#7f7f7f" stroke="#7f7f7f" points="1589.4705,-859.0474 1589.5074,-848.4526 1582.8716,-856.712 1589.4705,-859.0474"/>
</g>
<!-- Subscription&#45;&gt;Quote Line -->
<g id="edge114" class="edge">
<title>Subscription-&gt;Quote Line</title>
<path fill="none" stroke="#7f7f7f" d="M1404.0017,-1246.945C1383.3464,-1242.6335 1358.2549,-1236.6535 1335.5564,-1232 1249.6892,-1214.396 1148.8751,-1198.3176 1089.9291,-1186.8131"/>
<polygon fill="#7f7f7f" stroke="#7f7f7f" points="1090.2676,-1183.3119 1079.7765,-1184.791 1088.9002,-1190.177 1090.2676,-1183.3119"/>
</g>
<!-- Subscription&#45;&gt;Subscription -->
<g id="edge115" class="edge">
<title>Subscription-&gt;Subscription</title>
<path fill="none" stroke="#7f7f7f" d="M1434.734,-1268.1527C1432.7858,-1277.5391 1437.007,-1286 1447.3976,-1286 1453.7294,-1286 1457.7702,-1282.8581 1459.5201,-1278.2796"/>
<polygon fill="#7f7f7f" stroke="#7f7f7f" points="1463.0226,-1278.3252 1460.0612,-1268.1527 1456.0326,-1277.9517 1463.0226,-1278.3252"/>
</g>
<!-- Subscription&#45;&gt;Product -->
<g id="edge113" class="edge">
<title>Subscription-&gt;Product</title>
<path fill="none" stroke="#7f7f7f" d="M1417.4131,-1231.8186C1395.3758,-1219.0491 1364.3745,-1202.2983 1335.5564,-1191 1060.6275,-1083.2122 967.4773,-1129.8587 693.7722,-1019 679.7126,-1013.3055 665.0102,-1005.6466 652.1503,-998.3156"/>
<polygon fill="#7f7f7f" stroke="#7f7f7f" points="653.5496,-995.08 643.1475,-993.0681 650.0245,-1001.1277 653.5496,-995.08"/>
</g>
<!-- Subscription&#45;&gt;Contract -->
<g id="edge111" class="edge">
<title>Subscription-&gt;Contract</title>
<path fill="none" stroke="#7f7f7f" d="M1453.5952,-1268.1376C1476.779,-1335.9856 1558.495,-1575.1298 1586.5212,-1657.1491"/>
<polygon fill="#7f7f7f" stroke="#7f7f7f" points="1583.2683,-1658.4539 1589.8138,-1666.785 1589.8923,-1656.1904 1583.2683,-1658.4539"/>
</g>
<!-- Subscription&#45;&gt;Account -->
<g id="edge110" class="edge">
<title>Subscription-&gt;Account</title>
<path fill="none" stroke="#7f7f7f" d="M1479.2989,-1268.2289C1528.6892,-1297.3335 1625.2303,-1357.8043 1694.9394,-1424 1717.1369,-1445.0787 1738.2446,-1472.9741 1752.4115,-1493.2601"/>
<polygon fill="#7f7f7f" stroke="#7f7f7f" points="1749.6771,-1495.4609 1758.2259,-1501.7194 1755.4458,-1491.4958 1749.6771,-1495.4609"/>
</g>
<!-- Summary Variable&#45;&gt;Summary Variable -->
<g id="edge116" class="edge">
<title>Summary Variable-&gt;Summary Variable</title>
<path fill="none" stroke="#7f7f7f" d="M598.4249,-111.1527C595.92,-120.5391 601.3472,-129 614.7066,-129 622.8475,-129 628.0428,-125.8581 630.2927,-121.2796"/>
<polygon fill="#7f7f7f" stroke="#7f7f7f" points="633.7947,-121.3691 630.9883,-111.1527 626.8112,-120.8893 633.7947,-121.3691"/>
</g>
<!-- Template Content&#45;&gt;Template Section -->
<g id="edge117" class="edge">
<title>Template Content-&gt;Template Section</title>
<path fill="none" stroke="#000000" stroke-width="2" d="M1654.2835,-2119.5017C1667.8901,-2119.502 1682.1396,-2120.9689 1694.9394,-2125.2 1713.646,-2131.3836 1731.4925,-2144.221 1745.0996,-2156.0251"/>
<polygon fill="#000000" stroke="#000000" stroke-width="2" points="1742.8293,-2158.6908 1752.5958,-2162.7976 1747.522,-2153.4967 1742.8293,-2158.6908"/>
<text text-anchor="middle" x="1683.6638" y="-2129.2" font-family="Times,serif" font-size="14.00" fill="#000000">MD</text>
</g>
<!-- Template Section&#45;&gt;Quote Template -->
<g id="edge119" class="edge">
<title>Template Section-&gt;Quote Template</title>
<path fill="none" stroke="#000000" stroke-width="2" d="M1712.6649,-2175.659C1656.0112,-2170.3925 1569.6222,-2162.3619 1510.9456,-2156.9074"/>
<polygon fill="#000000" stroke="#000000" stroke-width="2" points="1510.9697,-2153.3946 1500.6886,-2155.9539 1510.3217,-2160.3646 1510.9697,-2153.3946"/>
<text text-anchor="middle" x="1596.0379" y="-2174.2" font-family="Times,serif" font-size="14.00" fill="#000000">MD</text>
</g>
<!-- Template Section&#45;&gt;Template Content -->
<g id="edge118" class="edge">
<title>Template Section-&gt;Template Content</title>
<path fill="none" stroke="#7f7f7f" d="M1712.7101,-2163.1915C1697.2309,-2158.3899 1680.332,-2153.1479 1664.322,-2148.1816"/>
<polygon fill="#7f7f7f" stroke="#7f7f7f" points="1665.077,-2144.7514 1654.489,-2145.1314 1663.0031,-2151.4371 1665.077,-2144.7514"/>
</g>
<!-- Term Condition -->
<g id="node50" class="node">
<title>Term Condition</title>
<polygon fill="#c277f2" stroke="#c277f2" points="479.0664,-284 373.4126,-284 373.4126,-248 479.0664,-248 479.0664,-284"/>
<text text-anchor="middle" x="426.2395" y="-261.8" font-family="Times,serif" font-size="14.00" fill="#000000">Term Condition</text>
</g>
<!-- Term Condition&#45;&gt;Quote Term -->
<g id="edge121" class="edge">
<title>Term Condition-&gt;Quote Term</title>
<path fill="none" stroke="#000000" stroke-width="2" d="M479.2873,-280.001C485.4298,-283.6418 490.962,-288.2268 495.0898,-294 503.4075,-305.6332 550.6915,-1308.0066 553.641,-1322 591.891,-1503.4687 686.3733,-1707.2863 721.9442,-1780.2176"/>
<polygon fill="#000000" stroke="#000000" stroke-width="2" points="719.0127,-1782.1887 726.5604,-1789.6239 725.2967,-1779.1047 719.0127,-1782.1887"/>
<text text-anchor="middle" x="524.3654" y="-982.2" font-family="Times,serif" font-size="14.00" fill="#000000">MD</text>
</g>
<!-- Term Condition&#45;&gt;Summary Variable -->
<g id="edge120" class="edge">
<title>Term Condition-&gt;Summary Variable</title>
<path fill="none" stroke="#7f7f7f" d="M479.1835,-251.8062C485.1818,-248.4078 490.7031,-244.2023 495.0898,-239 520.5435,-208.8136 490.0066,-184.0355 513.0898,-152 524.1081,-136.7086 540.4089,-124.7698 556.7441,-115.7554"/>
<polygon fill="#7f7f7f" stroke="#7f7f7f" points="558.5362,-118.7684 565.7895,-111.0456 555.3034,-112.5596 558.5362,-118.7684"/>
</g>
<!-- Theme -->
<g id="node51" class="node">
<title>Theme</title>
<polygon fill="#c277f2" stroke="#c277f2" points="107.7091,-602 52.9641,-602 52.9641,-566 107.7091,-566 107.7091,-602"/>
<text text-anchor="middle" x="80.3366" y="-579.8" font-family="Times,serif" font-size="14.00" fill="#000000">Theme</text>
</g>
<!-- Timing Log -->
<g id="node52" class="node">
<title>Timing Log</title>
<polygon fill="#c277f2" stroke="#c277f2" points="122.1141,-656 38.5591,-656 38.5591,-620 122.1141,-620 122.1141,-656"/>
<text text-anchor="middle" x="80.3366" y="-633.8" font-family="Times,serif" font-size="14.00" fill="#000000">Timing Log</text>
</g>
<!-- Upgrade Source -->
<g id="node53" class="node">
<title>Upgrade Source</title>
<polygon fill="#c277f2" stroke="#c277f2" points="479.3092,-993 373.1698,-993 373.1698,-957 479.3092,-957 479.3092,-993"/>
<text text-anchor="middle" x="426.2395" y="-970.8" font-family="Times,serif" font-size="14.00" fill="#000000">Upgrade Source</text>
</g>
<!-- Upgrade Source&#45;&gt;Product -->
<g id="edge122" class="edge">
<title>Upgrade Source-&gt;Product</title>
<path fill="none" stroke="#7f7f7f" d="M479.4909,-975C509.7983,-975 547.1299,-975 574.8832,-975"/>
<polygon fill="#7f7f7f" stroke="#7f7f7f" points="575.0164,-978.5001 585.0164,-975 575.0164,-971.5001 575.0164,-978.5001"/>
</g>
<!-- Web Quote -->
<g id="node54" class="node">
<title>Web Quote</title>
<polygon fill="#c277f2" stroke="#c277f2" points="1080.0663,-1703 999.7841,-1703 999.7841,-1667 1080.0663,-1667 1080.0663,-1703"/>
<text text-anchor="middle" x="1039.9252" y="-1680.8" font-family="Times,serif" font-size="14.00" fill="#000000">Web Quote</text>
</g>
<!-- Web Quote&#45;&gt;Quote -->
<g id="edge128" class="edge">
<title>Web Quote-&gt;Quote</title>
<path fill="none" stroke="#7f7f7f" d="M1080.1554,-1695.343C1095.5126,-1700.659 1112.4844,-1708.3233 1125.684,-1719 1136.8972,-1728.07 1133.7385,-1735.5555 1143.684,-1746 1159.1438,-1762.2355 1164.8258,-1764.7807 1184.2352,-1776 1196.4948,-1783.0865 1210.5627,-1789.619 1223.2163,-1794.9693"/>
<polygon fill="#7f7f7f" stroke="#7f7f7f" points="1221.9843,-1798.247 1232.5637,-1798.8198 1224.6506,-1791.7747 1221.9843,-1798.247"/>
</g>
<!-- Web Quote&#45;&gt;Quote Template -->
<g id="edge129" class="edge">
<title>Web Quote-&gt;Quote Template</title>
<path fill="none" stroke="#7f7f7f" d="M1064.1049,-1703.2085C1082.0142,-1717.2418 1106.5284,-1737.633 1125.684,-1758 1155.3815,-1789.5756 1157.319,-1802.0223 1184.2352,-1836 1270.9376,-1945.449 1379.0854,-2071.8912 1425.0572,-2125.1948"/>
<polygon fill="#7f7f7f" stroke="#7f7f7f" points="1422.4501,-2127.531 1431.6341,-2132.8134 1427.7488,-2122.9567 1422.4501,-2127.531"/>
</g>
<!-- Web Quote&#45;&gt;Opportunity -->
<g id="edge126" class="edge">
<title>Web Quote-&gt;Opportunity</title>
<path fill="none" stroke="#7f7f7f" d="M1080.2472,-1695.1302C1094.6533,-1698.9295 1110.9599,-1703.4371 1125.684,-1708 1172.9204,-1722.6381 1289.1692,-1764.8599 1335.5564,-1782 1474.4481,-1833.3206 1636.9094,-1897.1486 1718.213,-1929.3548"/>
<polygon fill="#7f7f7f" stroke="#7f7f7f" points="1717.1327,-1932.6915 1727.7187,-1933.1227 1719.7121,-1926.184 1717.1327,-1932.6915"/>
</g>
<!-- Web Quote&#45;&gt;Price Book -->
<g id="edge127" class="edge">
<title>Web Quote-&gt;Price Book</title>
<path fill="none" stroke="#7f7f7f" d="M1045.6027,-1666.9729C1057.5823,-1632.1315 1088.9432,-1555.7505 1143.684,-1519 1215.5244,-1470.7696 1258.3377,-1525.0447 1335.5564,-1486 1531.2539,-1387.0479 1697.6626,-1170.1426 1751.675,-1094.5854"/>
<polygon fill="#7f7f7f" stroke="#7f7f7f" points="1754.7702,-1096.2712 1757.6991,-1086.0893 1749.0599,-1092.2224 1754.7702,-1096.2712"/>
</g>
<!-- Web Quote&#45;&gt;Contract -->
<g id="edge125" class="edge">
<title>Web Quote-&gt;Contract</title>
<path fill="none" stroke="#7f7f7f" d="M1080.3674,-1685C1182.3414,-1685 1449.236,-1685 1553.4658,-1685"/>
<polygon fill="#7f7f7f" stroke="#7f7f7f" points="1553.6158,-1688.5001 1563.6158,-1685 1553.6157,-1681.5001 1553.6158,-1688.5001"/>
</g>
<!-- Web Quote&#45;&gt;Account -->
<g id="edge123" class="edge">
<title>Web Quote-&gt;Account</title>
<path fill="none" stroke="#7f7f7f" d="M1075.7386,-1666.8415C1118.2422,-1645.2968 1183.515,-1612.2323 1184.2352,-1612 1381.3625,-1548.4114 1630.4682,-1527.95 1728.1322,-1522.1021"/>
<polygon fill="#7f7f7f" stroke="#7f7f7f" points="1728.414,-1525.5918 1738.195,-1521.5197 1728.0095,-1518.6035 1728.414,-1525.5918"/>
</g>
<!-- Web Quote&#45;&gt;User -->
<g id="edge130" class="edge">
<title>Web Quote-&gt;User</title>
<path fill="none" stroke="#7f7f7f" d="M1080.2237,-1690.1877C1208.7753,-1706.7365 1607.9542,-1758.124 1732.5658,-1774.1655"/>
<polygon fill="#7f7f7f" stroke="#7f7f7f" points="1732.3832,-1777.6708 1742.7483,-1775.4764 1733.2771,-1770.7281 1732.3832,-1777.6708"/>
</g>
<!-- Contact -->
<g id="node67" class="node">
<title>Contact</title>
<polygon fill="#009edb" stroke="#009edb" points="1289.4445,-1657 1230.3471,-1657 1230.3471,-1621 1289.4445,-1621 1289.4445,-1657"/>
<text text-anchor="middle" x="1259.8958" y="-1634.8" font-family="Times,serif" font-size="14.00" fill="#000000">Contact</text>
</g>
<!-- Web Quote&#45;&gt;Contact -->
<g id="edge124" class="edge">
<title>Web Quote-&gt;Contact</title>
<path fill="none" stroke="#7f7f7f" d="M1080.0154,-1676.6164C1119.9143,-1668.2728 1180.7669,-1655.5473 1220.4413,-1647.2507"/>
<polygon fill="#7f7f7f" stroke="#7f7f7f" points="1221.2211,-1650.6634 1230.293,-1645.1905 1219.7882,-1643.8116 1221.2211,-1650.6634"/>
</g>
<!-- Web Quote Line -->
<g id="node55" class="node">
<title>Web Quote Line</title>
<polygon fill="#c277f2" stroke="#c277f2" points="669.5058,-1295 559.9074,-1295 559.9074,-1259 669.5058,-1259 669.5058,-1295"/>
<text text-anchor="middle" x="614.7066" y="-1272.8" font-family="Times,serif" font-size="14.00" fill="#000000">Web Quote Line</text>
</g>
<!-- Web Quote Line&#45;&gt;Block Price -->
<g id="edge132" class="edge">
<title>Web Quote Line-&gt;Block Price</title>
<path fill="none" stroke="#7f7f7f" d="M656.7332,-1258.9228C720.3077,-1232.0038 845.095,-1180.8242 954.1664,-1146 1042.6482,-1117.7496 1148.043,-1092.7035 1209.1292,-1079.0105"/>
<polygon fill="#7f7f7f" stroke="#7f7f7f" points="1209.9097,-1082.4225 1218.9086,-1076.8306 1208.3867,-1075.5902 1209.9097,-1082.4225"/>
</g>
<!-- Web Quote Line&#45;&gt;Contracted Price -->
<g id="edge133" class="edge">
<title>Web Quote Line-&gt;Contracted Price</title>
<path fill="none" stroke="#7f7f7f" d="M651.7911,-1295.059C660.9128,-1301.1565 669.7728,-1308.8017 675.7722,-1318 700.6815,-1356.1909 664.5619,-1383.989 693.7722,-1419 724.7721,-1456.156 749.5173,-1442.8843 795.8024,-1457 936.9672,-1500.0513 979.3656,-1514.2829 1125.684,-1495 1148.9139,-1491.9386 1173.8357,-1486.0183 1195.8218,-1479.8491"/>
<polygon fill="#7f7f7f" stroke="#7f7f7f" points="1197.0583,-1483.1354 1205.7004,-1477.0064 1195.1225,-1476.4084 1197.0583,-1483.1354"/>
</g>
<!-- Web Quote Line&#45;&gt;Cost -->
<g id="edge134" class="edge">
<title>Web Quote Line-&gt;Cost</title>
<path fill="none" stroke="#7f7f7f" d="M617.3467,-1258.9288C624.1685,-1216.7541 645.3453,-1109.7452 693.7722,-1035 772.5385,-913.427 805.5409,-880.6635 935.1664,-816 1031.0538,-768.1667 1159.7947,-757.1265 1222.4698,-754.6546"/>
<polygon fill="#7f7f7f" stroke="#7f7f7f" points="1222.7902,-758.1458 1232.6648,-754.3061 1222.551,-751.1499 1222.7902,-758.1458"/>
</g>
<!-- Web Quote Line&#45;&gt;Discount Schedule -->
<g id="edge135" class="edge">
<title>Web Quote Line-&gt;Discount Schedule</title>
<path fill="none" stroke="#7f7f7f" d="M621.9502,-1258.7734C634.1457,-1229.3418 660.7158,-1170.2802 693.7722,-1127 732.6557,-1076.0903 789.3797,-1027.3985 824.5538,-999.3857"/>
<polygon fill="#7f7f7f" stroke="#7f7f7f" points="826.8937,-1001.9979 832.5776,-993.0567 822.5585,-996.5018 826.8937,-1001.9979"/>
</g>
<!-- Web Quote Line&#45;&gt;Discount Tier -->
<g id="edge136" class="edge">
<title>Web Quote Line-&gt;Discount Tier</title>
<path fill="none" stroke="#7f7f7f" d="M631.7283,-1258.9081C646.9892,-1243.3497 670.4993,-1220.9593 693.7722,-1205 862.966,-1088.9762 1096.9228,-1011.3979 1203.2446,-979.881"/>
<polygon fill="#7f7f7f" stroke="#7f7f7f" points="1204.5222,-983.1536 1213.129,-976.9751 1202.5478,-976.4379 1204.5222,-983.1536"/>
</g>
<!-- Web Quote Line&#45;&gt;Subscription -->
<g id="edge137" class="edge">
<title>Web Quote Line-&gt;Subscription</title>
<path fill="none" stroke="#7f7f7f" d="M652.7581,-1295.0804C742.1971,-1335.3107 972.8415,-1425.8719 1166.2352,-1389 1263.3174,-1370.4906 1364.0688,-1308.3574 1414.4874,-1273.7615"/>
<polygon fill="#7f7f7f" stroke="#7f7f7f" points="1416.5015,-1276.624 1422.7219,-1268.0475 1412.5108,-1270.873 1416.5015,-1276.624"/>
</g>
<!-- Web Quote Line&#45;&gt;Web Quote -->
<g id="edge139" class="edge">
<title>Web Quote Line-&gt;Web Quote</title>
<path fill="none" stroke="#000000" stroke-width="2" d="M652.8889,-1295.1979C661.7816,-1301.2262 670.2534,-1308.8022 675.7722,-1318 716.4555,-1385.8035 650.1035,-1429.0797 693.7722,-1495 763.4299,-1600.1521 911.7628,-1652.2997 989.7008,-1673.3169"/>
<polygon fill="#000000" stroke="#000000" stroke-width="2" points="989.1981,-1676.8036 999.7594,-1675.9616 990.9781,-1670.0337 989.1981,-1676.8036"/>
<text text-anchor="middle" x="856.4844" y="-1654.2" font-family="Times,serif" font-size="14.00" fill="#000000">MD</text>
</g>
<!-- Web Quote Line&#45;&gt;Web Quote Line -->
<g id="edge138" class="edge">
<title>Web Quote Line-&gt;Web Quote Line</title>
<path fill="none" stroke="#7f7f7f" d="M598.4249,-1295.1527C595.92,-1304.5391 601.3472,-1313 614.7066,-1313 622.8475,-1313 628.0428,-1309.8581 630.2927,-1305.2796"/>
<polygon fill="#7f7f7f" stroke="#7f7f7f" points="633.7947,-1305.3691 630.9883,-1295.1527 626.8112,-1304.8893 633.7947,-1305.3691"/>
</g>
<!-- Web Quote Line&#45;&gt;Asset -->
<g id="edge131" class="edge">
<title>Web Quote Line-&gt;Asset</title>
<path fill="none" stroke="#7f7f7f" d="M669.5849,-1277.0033C768.8336,-1276.654 984.715,-1274.2665 1166.2352,-1261 1184.7607,-1259.6461 1205.2615,-1257.3317 1222.3483,-1255.1742"/>
<polygon fill="#7f7f7f" stroke="#7f7f7f" points="1223.0296,-1258.6153 1232.4978,-1253.861 1222.1314,-1251.6731 1223.0296,-1258.6153"/>
</g>
<!-- Quote Contract -->
<g id="node65" class="node">
<title>Quote Contract</title>
<polygon fill="#009edb" stroke="#009edb" points="1966.1797,-1968 1864.3409,-1968 1864.3409,-1932 1966.1797,-1932 1966.1797,-1968"/>
<text text-anchor="middle" x="1915.2603" y="-1945.8" font-family="Times,serif" font-size="14.00" fill="#000000">Quote Contract</text>
</g>
<!-- Opportunity&#45;&gt;Quote Contract -->
<g id="edge52" class="edge">
<title>Opportunity-&gt;Quote Contract</title>
<path fill="none" stroke="#7f7f7f" d="M1812.4908,-1950C1825.4854,-1950 1840.0525,-1950 1854.0424,-1950"/>
<polygon fill="#7f7f7f" stroke="#7f7f7f" points="1854.0965,-1953.5001 1864.0964,-1950 1854.0964,-1946.5001 1854.0965,-1953.5001"/>
</g>
<!-- Product&#45;&gt;Discount Category -->
<g id="edge73" class="edge">
<title>Product-&gt;Discount Category</title>
<path fill="none" stroke="#7f7f7f" d="M617.0456,-956.9123C624.9205,-898.8541 652.3206,-718.7371 693.7722,-680 718.162,-657.2074 753.8381,-648.4971 785.5731,-645.7883"/>
<polygon fill="#7f7f7f" stroke="#7f7f7f" points="785.9749,-649.2694 795.7189,-645.1095 785.5076,-642.285 785.9749,-649.2694"/>
</g>
<!-- Product&#45;&gt;Discount Schedule -->
<g id="edge74" class="edge">
<title>Product-&gt;Discount Schedule</title>
<path fill="none" stroke="#7f7f7f" d="M644.3533,-970.3857C679.244,-968.2483 738.3778,-967.7152 785.3615,-968.7865"/>
<polygon fill="#7f7f7f" stroke="#7f7f7f" points="785.4061,-972.2887 795.4932,-969.0482 785.5869,-965.291 785.4061,-972.2887"/>
</g>
<!-- Product&#45;&gt;Product -->
<g id="edge75" class="edge">
<title>Product-&gt;Product</title>
<path fill="none" stroke="#7f7f7f" d="M598.4249,-993.1527C595.92,-1002.5391 601.3472,-1011 614.7066,-1011 622.8475,-1011 628.0428,-1007.8581 630.2927,-1003.2796"/>
<polygon fill="#7f7f7f" stroke="#7f7f7f" points="633.7947,-1003.3691 630.9883,-993.1527 626.8112,-1002.8893 633.7947,-1003.3691"/>
</g>
<!-- Asset&#45;&gt;Quote Line -->
<g id="edge6" class="edge">
<title>Asset-&gt;Quote Line</title>
<path fill="none" stroke="#7f7f7f" d="M1232.6956,-1245.1082C1196.1178,-1234.7502 1130.5512,-1212.1287 1086.1545,-1194.8015"/>
<polygon fill="#7f7f7f" stroke="#7f7f7f" points="1087.3297,-1191.5026 1076.7433,-1191.0798 1084.7555,-1198.0121 1087.3297,-1191.5026"/>
</g>
<!-- Asset&#45;&gt;Subscription -->
<g id="edge8" class="edge">
<title>Asset-&gt;Subscription</title>
<path fill="none" stroke="#7f7f7f" d="M1287.1602,-1250C1315.0781,-1250 1359.2022,-1250 1394.0858,-1250"/>
<polygon fill="#7f7f7f" stroke="#7f7f7f" points="1394.1216,-1253.5001 1404.1215,-1250 1394.1215,-1246.5001 1394.1216,-1253.5001"/>
</g>
<!-- Asset&#45;&gt;Product -->
<g id="edge7" class="edge">
<title>Asset-&gt;Product</title>
<path fill="none" stroke="#7f7f7f" d="M1232.8693,-1248.4479C1131.2912,-1242.0748 774.082,-1214.6339 693.7722,-1140 653.2167,-1102.3108 631.2345,-1039.4577 621.3339,-1003.1764"/>
<polygon fill="#7f7f7f" stroke="#7f7f7f" points="624.658,-1002.0526 618.7489,-993.2586 617.8843,-1003.8181 624.658,-1002.0526"/>
</g>
<!-- Contract&#45;&gt;Quote -->
<g id="edge17" class="edge">
<title>Contract-&gt;Quote</title>
<path fill="none" stroke="#7f7f7f" d="M1563.6862,-1701.1195C1500.9025,-1727.6223 1362.9094,-1778.6023 1296.7242,-1799.8263"/>
<polygon fill="#7f7f7f" stroke="#7f7f7f" points="1295.6052,-1796.5092 1287.119,-1802.8523 1297.7086,-1803.1857 1295.6052,-1796.5092"/>
</g>
<!-- Contract&#45;&gt;Opportunity -->
<g id="edge15" class="edge">
<title>Contract-&gt;Opportunity</title>
<path fill="none" stroke="#7f7f7f" d="M1608.0033,-1703.2145C1638.0662,-1748.9784 1716.89,-1868.9695 1752.3668,-1922.9749"/>
<polygon fill="#7f7f7f" stroke="#7f7f7f" points="1749.6551,-1925.2217 1758.0709,-1931.658 1755.5057,-1921.3784 1749.6551,-1925.2217"/>
</g>
<!-- Contract&#45;&gt;Price Book -->
<g id="edge16" class="edge">
<title>Contract-&gt;Price Book</title>
<path fill="none" stroke="#7f7f7f" d="M1601.5471,-1666.7776C1616.7851,-1616.26 1660.6357,-1470.0996 1694.9394,-1348 1720.8039,-1255.9387 1749.6852,-1146.3074 1762.8604,-1095.8887"/>
<polygon fill="#7f7f7f" stroke="#7f7f7f" points="1766.2878,-1096.616 1765.4267,-1086.0562 1759.5147,-1094.8482 1766.2878,-1096.616"/>
</g>
<!-- Contract&#45;&gt;Account -->
<g id="edge14" class="edge">
<title>Contract-&gt;Account</title>
<path fill="none" stroke="#7f7f7f" d="M1615.3329,-1666.7117C1646.5245,-1637.1473 1708.0921,-1578.7918 1743.4547,-1545.2742"/>
<polygon fill="#7f7f7f" stroke="#7f7f7f" points="1746.1538,-1547.5383 1751.0039,-1538.1188 1741.3383,-1542.4577 1746.1538,-1547.5383"/>
</g>
<!-- Contract&#45;&gt;User -->
<g id="edge18" class="edge">
<title>Contract-&gt;User</title>
<path fill="none" stroke="#7f7f7f" d="M1628.3734,-1702.4604C1658.3139,-1718.6275 1702.7773,-1742.6366 1733.8993,-1759.4418"/>
<polygon fill="#7f7f7f" stroke="#7f7f7f" points="1732.6366,-1762.7375 1743.0988,-1764.4092 1735.9626,-1756.5781 1732.6366,-1762.7375"/>
</g>
<!-- Opportunity Product -->
<g id="node66" class="node">
<title>Opportunity Product</title>
<polygon fill="#009edb" stroke="#009edb" points="492.2278,-1861 360.2512,-1861 360.2512,-1825 492.2278,-1825 492.2278,-1861"/>
<text text-anchor="middle" x="426.2395" y="-1838.8" font-family="Times,serif" font-size="14.00" fill="#000000">Opportunity Product</text>
</g>
<!-- Opportunity Product&#45;&gt;Quote Line -->
<g id="edge54" class="edge">
<title>Opportunity Product-&gt;Quote Line</title>
<path fill="none" stroke="#7f7f7f" d="M442.9724,-1824.7316C528.4321,-1731.4298 916.0554,-1308.2366 1016.2355,-1198.8635"/>
<polygon fill="#7f7f7f" stroke="#7f7f7f" points="1019.0339,-1200.9902 1023.2073,-1191.252 1013.8719,-1196.2622 1019.0339,-1200.9902"/>
</g>
<!-- Opportunity Product&#45;&gt;Opportunity -->
<g id="edge55" class="edge">
<title>Opportunity Product-&gt;Opportunity</title>
<path fill="none" stroke="#7f7f7f" d="M431.5235,-1861.1926C448.4031,-1915.0589 506.3714,-2070 614.7066,-2070 614.7066,-2070 614.7066,-2070 935.6664,-2070 1257.7614,-2070 1335.9008,-2025.0725 1654.3882,-1977 1672.4727,-1974.2703 1677.073,-1973.9104 1694.9394,-1970 1702.3702,-1968.3736 1710.1702,-1966.4949 1717.8173,-1964.5535"/>
<polygon fill="#7f7f7f" stroke="#7f7f7f" points="1718.9368,-1967.879 1727.7383,-1961.9812 1717.1799,-1961.1031 1718.9368,-1967.879"/>
</g>
<!-- Opportunity Product&#45;&gt;Product -->
<g id="edge53" class="edge">
<title>Opportunity Product-&gt;Product</title>
<path fill="none" stroke="#7f7f7f" d="M438.1505,-1824.9345C461.8763,-1787.831 514.5637,-1699.5738 535.641,-1617 576.0308,-1458.7663 531.8623,-1411.8484 553.641,-1250 565.9455,-1158.5595 593.2783,-1052.5437 606.8071,-1003.0947"/>
<polygon fill="#7f7f7f" stroke="#7f7f7f" points="610.2647,-1003.7222 609.5508,-993.1515 603.5168,-1001.8602 610.2647,-1003.7222"/>
</g>
<!-- Opportunity Product&#45;&gt;User -->
<g id="edge56" class="edge">
<title>Opportunity Product-&gt;User</title>
<path fill="none" stroke="#7f7f7f" d="M492.1563,-1825.2335C545.9433,-1811.7008 624.1508,-1794.2085 693.7722,-1787 845.6512,-1771.2747 1070.9152,-1829.1937 1184.2352,-1836 1251.3681,-1840.0322 1268.4455,-1840.3826 1335.5564,-1836 1483.4945,-1826.3391 1657.9642,-1798.367 1732.8887,-1785.5521"/>
<polygon fill="#7f7f7f" stroke="#7f7f7f" points="1733.5259,-1788.994 1742.787,-1783.8479 1732.3382,-1782.0955 1733.5259,-1788.994"/>
</g>
</g>
</svg>